<svg width="261" height="211" viewBox="0 0 261 211" fill="none" xmlns="http://www.w3.org/2000/svg">
<path d="M34.6373 0.00610882C23.8972 -0.0391849 16.7588 0.18225 16.7588 0.18225C15.0652 0.233874 13.4588 0.918687 12.2795 2.09181C11.1002 3.26493 10.4405 4.83434 10.44 6.46801V19.3113H6.4467C4.73693 19.3113 3.09719 19.9661 1.88819 21.1317C0.679204 22.2973 0 23.8782 0 25.5266L0 201.82C0 203.468 0.679204 205.049 1.88819 206.215C3.09719 207.38 4.73693 208.035 6.4467 208.035H119.799C126.653 212.481 135.477 211.462 141.201 208.035H254.553C256.263 208.035 257.903 207.38 259.112 206.215C260.321 205.049 261 203.468 261 201.82V25.5266C261 23.8782 260.321 22.2973 259.112 21.1317C257.903 19.9661 256.263 19.3113 254.553 19.3113H250.56V6.46801C250.559 4.83392 249.899 3.26414 248.72 2.09095C247.54 0.917765 245.933 0.233234 244.239 0.18225C244.239 0.18225 237.103 -0.0391849 226.36 0.00610882C215.623 0.0514025 201.283 0.360909 186.876 1.4228C172.469 2.47965 158.015 4.24107 146.533 7.46699C140.791 9.07744 135.764 11.0075 131.651 13.8559C131.26 14.1277 130.878 14.4271 130.5 14.7266C130.126 14.4249 129.742 14.1345 129.349 13.8559C125.236 11.0075 120.209 9.07995 114.467 7.46699C102.985 4.24359 88.5312 2.48217 74.124 1.4228C59.7168 0.363425 45.3775 0.0514025 34.6373 0.00610882ZM226.331 6.2969C236.954 6.25161 244.035 6.46801 244.035 6.46801V182.61C244.035 182.61 145.053 178.901 131.928 198.428C131.017 199.741 130.108 199.824 129.2 198.624C116.599 178.879 16.965 182.61 16.965 182.61V6.46801C16.965 6.46801 24.0459 6.25664 34.6686 6.30194C66.5367 6.43782 130.296 8.91891 130.5 26.5986C130.704 8.91891 194.463 6.43278 226.331 6.2969ZM12.8934 187.527C14.1175 188.47 15.6526 188.957 17.2182 188.899C17.2182 188.899 45.1921 187.862 73.0174 189.817C86.9287 190.793 100.819 192.567 110.648 195.353C110.922 195.433 111.157 195.522 111.426 195.602H12.896L12.8934 187.527ZM248.101 187.527V195.602H149.571C149.84 195.522 150.075 195.433 150.349 195.355C160.178 192.567 174.069 190.793 187.98 189.817C215.803 187.862 243.782 188.899 243.782 188.899C245.347 188.956 246.878 188.469 248.101 187.527Z" fill="#1F3F23"/>
<path d="M226.305 12.5926C215.8 12.6379 201.808 12.9374 187.865 13.964C173.923 14.9907 160.009 16.7873 150.177 19.5477C145.262 20.9267 141.397 22.5975 139.262 24.0746C137.129 25.5492 137.03 26.1506 137.025 26.6664V56.1853C137.142 56.1249 137.286 56.0595 137.315 56.0092C137.346 55.9483 137.391 55.8949 137.447 55.8531C137.502 55.8113 137.567 55.7821 137.636 55.7676C138.04 55.6821 138.635 56.0444 138.983 56.6836C139.408 57.4636 139.411 57.597 139.035 58.2437C138.805 58.6362 138.21 59.225 137.714 59.5471C137.39 59.7585 137.231 59.9321 137.025 60.1183V100.005C137.495 99.2546 137.584 98.4796 137.296 97.3699C137.009 96.2678 137.035 96.1067 137.826 94.5793C138.596 93.0871 139.343 92.0756 140.763 90.6086C141.082 90.2518 141.273 89.8053 141.308 89.3353C141.308 88.8824 141.629 88.2659 142.203 87.6192C143.832 85.7873 144.002 84.7355 142.621 84.972C141.76 85.123 141.767 85.1809 141.731 82.0279C141.715 80.7194 141.825 80.035 142.081 79.7884C142.31 79.567 143.208 79.3506 144.411 79.2222L146.369 79.0109V78.027C146.369 76.8393 145.706 75.8227 145.004 75.9435C144.364 76.0542 144.033 75.3345 144.534 74.9218C144.827 74.7231 145.181 74.6272 145.539 74.6501C146.082 74.6878 146.15 74.6174 146.022 74.1443C145.896 73.6813 145.969 73.5957 146.455 73.6335C147.008 73.6737 148.209 72.8534 147.935 72.6219C147.799 72.5087 145.403 73.2913 144.257 73.8197C143.631 74.1116 143.628 74.0965 144.054 73.407C144.383 72.8761 144.419 72.627 144.192 72.3904C143.965 72.1539 144.015 71.9702 144.401 71.6104C144.792 71.2405 144.818 71.1474 144.508 71.1851C144.226 71.2229 144.299 71.0417 144.753 70.5812C145.327 70.0024 145.354 69.8917 144.999 69.5923C144.641 69.2953 144.555 69.3155 144.223 69.776C144.038 70.0252 143.902 70.3049 143.821 70.6013C143.803 70.7699 143.774 71.1499 143.748 71.4518C143.722 71.8343 143.393 72.1489 142.647 72.5137C141.245 73.1956 141.133 73.2057 140.971 72.6018C140.893 72.3175 140.95 72.0658 141.099 72.0407C141.251 72.0155 141.298 71.7211 141.204 71.3688C140.982 70.5107 141.277 69.7835 141.804 69.8993C142.034 69.9496 142.138 69.9119 142.031 69.8238C141.718 69.5596 142.631 68.5908 143.153 68.6411C143.475 68.673 143.684 68.4926 143.78 68.1001C143.858 67.778 143.819 67.5314 143.688 67.5541C143.427 67.5994 143.649 66.0694 144.02 65.2743C144.153 64.9849 144.56 64.7106 144.946 64.6452C145.497 64.5496 145.609 64.6351 145.497 65.0906C145.393 65.5083 145.481 65.6291 145.86 65.5637C146.434 65.463 146.499 65.7826 146.084 66.6406C145.876 67.0734 145.894 67.32 146.144 67.5843C146.552 68.0095 147.05 68.7694 147.423 69.5445C147.575 69.8565 147.88 70.1484 148.107 70.1987C148.415 70.2641 148.472 70.5208 148.347 71.2354C148.183 72.1539 148.196 72.1715 148.807 71.7815C149.154 71.5575 149.621 70.9637 149.84 70.4529C150.138 69.7659 150.495 69.4212 151.236 69.1066C152.098 68.7443 152.231 68.5782 152.231 67.924C152.231 67.5037 152.119 67.1791 151.97 67.2043C151.385 67.3049 151.704 65.6744 152.406 64.9975C152.789 64.6251 153.197 64.3055 153.306 64.2854C153.7 64.2174 153.776 65.9461 153.403 66.4418C152.672 67.4131 153.129 67.9617 154.408 67.6421C154.804 67.5415 155.204 67.5717 155.295 67.705C155.402 67.8636 155.713 67.7805 156.177 67.466C157.302 66.6985 158.359 66.3185 158.359 66.6859C158.359 67.4157 159.387 65.8254 159.521 64.8842C159.797 62.9366 160.019 62.0509 160.254 62.0106C160.385 61.9854 160.732 61.6885 161.024 61.3413C161.424 60.9108 161.966 60.6265 162.559 60.536C163.107 60.4379 163.728 60.214 163.945 60.0403C164.735 59.3987 163.391 59.4842 162.167 60.1511C161.087 60.7424 160.935 60.7726 160.34 60.4807C159.985 60.3045 159.68 60.0881 159.68 59.995L159.549 58.5255C159.448 57.3579 159.523 57.1088 160.296 56.0847C162.073 53.7219 162.141 53.5986 161.804 53.2463C161.704 53.151 161.583 53.0787 161.449 53.0347C161.316 52.9907 161.174 52.9761 161.034 52.9921C160.536 53.0777 159.849 54.4214 160.113 54.8039C160.202 54.9372 159.722 55.6544 159.048 56.3967C157.514 58.0826 157.125 59.2955 157.848 60.1032C158.558 60.8934 158.469 62.3201 157.701 62.4535C157.503 62.4862 157.232 63.1908 157.049 64.1772C156.793 65.536 156.634 65.8631 156.214 65.9386C155.927 65.9864 155.697 66.1474 155.697 66.2959C155.697 66.4444 155.454 66.6029 155.162 66.6532C154.87 66.7035 154.632 66.8696 154.632 67.0181C154.632 67.4635 153.828 67.4584 153.648 67.0131C153.549 66.7665 153.661 66.4343 153.935 66.1877C154.363 65.7977 154.361 65.6844 153.883 64.3357L153.374 62.9014L152.565 63.7242C151.182 65.1359 150.503 64.8993 150.224 62.914C150.078 61.8752 150.028 60.8259 150.075 59.7786C150.091 59.5849 150.224 59.4767 150.37 59.5421C150.516 59.61 150.641 59.5018 150.641 59.3081C150.644 59.1118 151.137 58.5079 151.732 57.9593C152.651 57.1164 154.478 54.4189 154.504 53.8829C154.52 53.4878 155.809 50.9313 156.008 50.8985C156.128 50.8784 156.227 50.7048 156.227 50.5085C156.227 50.3148 156.441 49.882 156.697 49.5523C156.952 49.2202 157.32 48.6112 157.514 48.1985C157.707 47.7884 158.273 47.1543 158.777 46.7944C159.28 46.4346 159.695 46.032 159.695 45.9037C159.695 45.7753 159.97 45.7023 160.311 45.7275C160.891 45.7753 161.807 44.9651 161.622 44.5725C161.582 44.492 161.82 44.3486 162.151 44.258C164.122 43.7044 164.495 43.6994 165.143 44.2051C165.79 44.7059 165.8 44.7537 165.351 45.335C164.897 45.9263 164.908 45.9263 165.769 45.5891C166.528 45.2947 166.675 45.3199 166.8 45.7829C166.896 46.1352 167.16 46.2861 167.57 46.2132C167.914 46.1553 168.593 46.3792 169.073 46.7114C169.556 47.041 170.284 47.4663 170.694 47.66C172.025 48.2765 172.156 49.6781 170.976 50.662C170.428 51.1175 170.167 51.1753 169.078 51.0646C168.384 50.9942 167.638 50.8331 167.418 50.7123C167.135 50.553 167.152 50.6327 167.471 50.9514C167.716 51.203 167.922 51.8069 167.896 52.2876C167.87 53.2438 168.577 54.1245 169.264 53.9936C169.627 53.9257 169.616 53.8854 169.217 53.7168C168.961 53.6111 168.752 53.2261 168.752 52.8638C168.752 52.1089 168.935 52.0284 169.666 52.4612C170.407 52.899 170.858 52.7556 170.689 52.1315C170.488 51.3817 171.876 49.7612 172.672 49.8216C173.239 49.8643 173.254 49.814 173.1 48.4552C173.012 47.6777 172.821 46.9102 172.678 46.7491C172.487 46.5378 172.555 46.4346 172.918 46.3767C174.494 46.1175 175.405 46.9806 174.468 47.8362C174.218 48.0677 174.082 48.3822 174.186 48.5332C174.481 48.961 175.089 48.7471 175.267 48.1507C175.423 47.6324 177.284 45.8911 177.772 45.8055C177.903 45.7829 178.159 45.5589 178.341 45.3048C178.54 45.0407 178.825 44.8484 179.15 44.7587C179.511 44.6983 179.589 44.8342 179.479 45.3098C179.359 45.8257 179.401 45.8709 179.693 45.5463C179.953 45.293 180.284 45.1182 180.646 45.0431C180.975 44.9877 181.322 44.799 181.421 44.6229C181.52 44.4467 181.865 44.3209 182.196 44.3461C182.523 44.3712 182.867 44.3058 182.953 44.2001C183.209 43.8982 182.627 43.0854 182.212 43.1584C181.781 43.2313 181.418 42.3607 181.679 41.8851C181.801 41.6737 182.051 41.7073 182.429 41.9857C182.742 42.2198 183.603 42.5066 184.331 42.6274C185.062 42.7457 186.124 43.1433 186.691 43.5081C187.688 44.1447 187.716 44.1473 187.534 43.5584C187.429 43.2238 187.158 42.8337 186.936 42.6953C186.668 42.5276 186.59 42.2063 186.701 41.7316C186.795 41.3391 186.732 40.8081 186.555 40.5514C186.284 40.1614 186.346 39.8972 186.952 38.9158C187.346 38.2742 187.664 37.4916 187.664 37.1771C187.664 36.8625 187.826 36.4171 188.017 36.1882C188.237 35.9088 188.413 35.5992 188.539 35.2697C188.635 34.9929 188.888 34.7413 189.097 34.7035C189.677 34.6029 189.836 35.3326 189.322 35.7252C188.941 36.017 188.982 36.0548 189.598 35.9567C190.235 35.856 190.329 35.9466 190.329 36.6637C190.329 37.1167 190.212 37.7332 190.068 38.0351C189.88 38.4201 189.891 38.6315 190.107 38.7296C190.287 38.8102 190.342 38.7598 190.246 38.6164C190.152 38.478 190.342 37.9798 190.668 37.5042C190.995 37.0311 191.224 36.4423 191.183 36.1957C191.141 35.9541 191.224 35.6547 191.37 35.5415C191.668 35.3024 192.117 35.9868 192.075 36.6159C192.036 37.1997 192.519 37.3708 192.85 36.8927C193.411 36.08 194.21 35.9416 194.964 36.5153C195.364 36.8223 195.813 37.0462 195.974 37.0185C196.134 36.9934 195.964 36.7367 195.588 36.4499C195.139 36.1076 194.837 35.5163 194.719 34.7488C194.515 33.395 194.536 33.3774 196.815 32.698C198.25 32.2702 198.642 31.9456 198.055 31.6814C197.632 31.4902 197.736 30.2547 198.183 30.1767C198.417 30.1364 198.514 29.9653 198.42 29.7363C198.316 29.4771 198.433 29.3262 198.798 29.2632C199.091 29.2129 199.399 28.9915 199.477 28.7726C199.555 28.5536 200.077 28.141 200.639 27.8566C201.197 27.5748 201.771 27.1747 201.917 26.9684C202.325 26.3972 203.645 25.9442 204.071 26.2261C204.279 26.367 204.645 26.3494 204.911 26.1858C205.17 26.0298 205.681 25.8763 206.046 25.8486C206.584 25.8058 206.647 25.7429 206.378 25.5089C205.872 25.0685 205.979 24.8043 206.704 24.6785C207.174 24.598 207.318 24.4571 207.211 24.1903C207.023 23.7299 208.046 21.8426 208.753 21.3368C208.839 21.2772 208.934 21.2305 209.035 21.1984C209.212 21.1434 209.4 21.1296 209.583 21.1582C210.131 21.2412 210.609 21.6564 210.483 22.1622C210.397 22.5069 210.486 22.6755 210.731 22.6327C210.943 22.5975 211.188 22.7409 211.272 22.9473C211.368 23.1863 211.783 23.2694 212.394 23.1687C213.856 22.9297 214.881 23.7852 215.035 25.3705C215.161 26.6714 215.014 26.9382 213.052 28.9688C212.613 29.4243 212.611 29.4495 213.107 29.4595C213.394 29.4646 213.728 29.5904 213.837 29.7388C213.978 29.9326 214.111 29.8823 214.299 29.5627C214.524 29.1852 214.592 29.2003 214.725 29.6709C214.855 30.1339 214.996 30.1742 215.492 29.8974C216.317 29.4394 218.306 29.6155 218.123 30.1289C218.031 30.3838 218.298 30.5164 218.924 30.5264C220.067 30.5466 220.428 30.2874 220.428 29.4495C220.428 28.5687 220.803 28.3448 221.738 28.6744C222.174 28.8254 222.756 28.9135 223.032 28.8657C224.008 28.6971 224.442 29.4897 224.374 31.3166C224.319 32.7307 224.397 33.0604 224.833 33.307C225.316 33.5838 225.371 33.5334 225.577 32.6779C225.88 31.4222 226.183 31.1178 226.535 31.7267C226.765 32.1218 227.005 32.1721 227.595 31.9532C228.044 31.7846 228.435 31.777 228.547 31.9431C228.688 32.1469 228.853 32.1017 229.174 31.7494C229.416 31.4877 229.74 31.2713 229.884 31.2713C230.027 31.2763 230.181 31.0599 230.231 30.7932C230.28 30.5239 230.194 30.3226 230.038 30.3503C229.881 30.3755 229.75 30.2169 229.75 29.998C229.75 29.7715 229.98 29.5577 230.262 29.5098C230.541 29.4595 230.818 29.2758 230.873 29.1022C231.029 28.6015 236.098 28.989 236.409 29.5249C236.547 29.759 236.591 30.0332 236.505 30.1339C236.422 30.2345 236.662 30.3427 237.045 30.3729C237.275 30.3931 237.39 30.4635 237.51 30.5365V12.6933C234.566 12.6354 233.021 12.5599 226.305 12.5926ZM206.861 20.6096C207.166 20.5568 207.341 20.6474 207.252 20.8109C207.036 21.1959 206.313 21.3217 206.313 20.972C206.313 20.8235 206.561 20.66 206.861 20.6096ZM231.408 21.4652C231.611 21.4828 231.917 21.6111 232.426 21.8678C233.083 22.1949 233.921 22.4214 234.289 22.3685C235.01 22.2679 236.187 22.4944 235.751 22.6529C235.605 22.7057 235.842 22.7611 236.281 22.7787C237.163 22.819 237.327 23.36 236.628 23.9261C236.061 24.3866 234.289 23.9085 234.289 23.2971C234.289 22.7099 233.885 22.8642 233.076 23.7601C232.687 24.1878 232.053 24.593 231.664 24.6584C231.275 24.7238 230.575 24.9226 230.113 25.1013C229.398 25.3755 229.202 25.3277 228.819 24.7993C227.984 23.6594 228.845 21.5784 229.852 21.6539C230.014 21.6667 230.167 21.7274 230.291 21.8275C230.727 22.1521 230.8 22.1421 231.006 21.7344C231.105 21.5382 231.204 21.4476 231.408 21.4652ZM227.89 22.6403C228.036 22.6151 228.161 22.9574 228.161 23.4027C228.161 23.8456 228.036 24.2331 227.89 24.2583C227.743 24.2835 227.626 23.9412 227.626 23.4958C227.626 23.053 227.743 22.6655 227.89 22.6403ZM230.841 25.7354C231.113 25.7857 231.35 26.148 231.189 26.4399C231.116 26.5708 231.277 26.6412 231.551 26.5909C232.178 26.4852 232.687 26.9004 232.687 27.527C232.687 27.8994 232.488 28.0328 231.82 28.1259C231.38 28.1875 230.934 28.2127 230.489 28.2014C229.985 28.151 229.844 27.6905 230.312 27.61C230.489 27.5798 230.536 27.2754 230.429 26.8073C230.325 26.3468 230.377 25.9593 230.573 25.8058C230.609 25.7753 230.652 25.7533 230.699 25.7415C230.745 25.7297 230.794 25.726 230.841 25.7354ZM187.299 26.9533C187.688 26.8501 187.967 27.0086 188.082 27.449C188.335 28.4178 187.826 29.1248 186.106 30.2018C185.174 30.7856 184.169 31.6663 183.679 32.3407L182.314 34.2279C182.021 34.6306 181.416 35.8107 180.967 36.8575C180.046 39.0089 180.061 40.2193 181.019 41.0849C181.319 41.3617 181.476 41.6788 181.348 41.7819C181.045 42.0235 179.516 42.2399 179.203 42.0839C179.07 42.021 178.879 41.6511 178.78 41.261C178.66 40.7846 178.424 40.5783 178.072 40.642C177.684 40.7075 177.54 40.5489 177.54 40.0406C177.54 39.6506 177.66 39.404 177.811 39.4719C178.065 39.5902 178.185 39.2128 178.091 38.5283C178.065 38.3346 178.258 37.8187 178.519 37.3784C178.78 36.938 178.962 36.4423 178.929 36.2762C178.892 36.1127 179.119 35.4962 179.432 34.9048C179.753 34.3009 179.941 33.6089 179.86 33.312C179.768 32.9631 179.868 32.7081 180.16 32.547C180.406 32.4137 181.16 31.6336 181.833 30.8158C182.877 29.5526 183.206 29.3136 184.031 29.1953C184.783 29.0871 185.2 28.8254 185.882 28.0378C186.414 27.4263 186.91 27.0539 187.299 26.9533ZM160.306 28.6216C160.769 28.5636 161.238 28.6739 161.622 28.9311L162.188 29.3689L161.564 30.149C160.964 30.9014 160.019 31.382 160.364 30.7655C160.452 30.6019 160.301 30.5063 160.024 30.5541C159.625 30.6221 159.521 30.4459 159.547 29.6935C159.562 28.8455 159.641 28.7373 160.306 28.6216ZM158.09 29.0796C158.43 29.0695 158.631 29.0997 158.631 29.1777C158.629 29.2517 158.602 29.3231 158.553 29.3803C158.504 29.4374 158.437 29.4769 158.362 29.4922C158.216 29.5174 158.096 29.7137 158.096 29.9301C158.096 30.1465 157.892 31.0322 157.641 31.8953C157.159 33.5636 156.613 33.999 156.336 32.9371C156.245 32.5848 156.021 32.3206 155.833 32.3533C155.397 32.4288 155.094 31.3392 155.47 31.0398C155.647 30.8989 155.658 30.7932 155.496 30.7605C155.352 30.7303 155.149 30.4459 155.047 30.1314C154.864 29.5753 154.917 29.5476 156.744 29.2305C157.284 29.1399 157.754 29.0896 158.09 29.0796ZM212.326 30.5189C212.344 30.4568 212.263 30.4753 212.086 30.5742C211.817 30.7177 211.486 30.8536 211.353 30.8762C211.217 30.9014 211.107 31.0976 211.107 31.3191C211.107 31.8475 211.172 31.8249 211.932 31.0045C212.083 30.8587 212.217 30.6956 212.326 30.5189ZM196.28 38.4604C196.208 38.6222 196.161 38.7935 196.142 38.9687C196.042 39.4719 196.076 39.6481 196.246 39.4493C196.397 39.2133 196.452 38.9322 196.403 38.6592C196.364 38.4797 196.323 38.4134 196.28 38.4604ZM190.473 39.2631C190.376 39.3763 190.334 39.9324 190.332 40.9666C190.326 42.9898 190.71 43.9887 191.172 43.1659C191.303 42.9344 191.219 42.7885 190.953 42.7759C190.598 42.7608 190.553 42.489 190.684 41.2032C190.77 40.3501 190.723 39.4921 190.585 39.2958C190.543 39.2371 190.506 39.2262 190.473 39.2631ZM190.856 44.0995C190.71 44.1246 190.59 44.3763 190.59 44.6631C190.59 44.95 190.473 45.2846 190.326 45.4004C190.06 45.6118 189.948 46.4069 190.188 46.3641C190.259 46.3516 190.493 45.954 190.718 45.4784C191.19 44.4769 191.232 44.034 190.856 44.0995ZM176.282 44.2957C176.407 44.2756 176.543 44.3586 176.778 44.5297C177.248 44.882 177.248 44.9399 176.83 45.4734C176.376 46.0622 175.901 46.266 175.588 46.0043C175.288 45.7527 175.387 45.2016 175.838 44.6707C176.037 44.4341 176.157 44.3159 176.282 44.2957ZM189.637 46.6183C189.507 46.628 189.379 46.6613 189.262 46.7164C188.969 46.8422 188.726 46.9932 188.726 47.0486C188.726 47.1039 188.967 47.109 189.262 47.0586C189.556 47.0083 189.791 46.8573 189.791 46.7265C189.788 46.6577 189.737 46.6216 189.637 46.6183ZM236.761 48.3772C236.615 48.3646 236.364 48.4376 235.952 48.5886C235.401 48.7899 234.339 49.044 233.59 49.1573C232.238 49.3636 232.22 49.3812 230.818 51.2911C230.04 52.3479 229.038 53.6061 228.584 54.0867C227.976 54.7334 227.879 54.9448 228.208 54.8919C228.522 54.876 228.83 54.9769 229.069 55.1738C229.299 55.3675 229.492 55.3952 229.492 55.2367C229.492 54.8089 230.442 54.7259 230.823 55.1235C231.259 55.5814 231.992 55.4556 231.789 54.9574C231.7 54.7359 231.789 54.5548 231.998 54.5195C232.423 54.4466 232.682 55.2241 232.682 56.5879C232.682 57.1264 232.869 58.0474 233.091 58.6438C233.54 59.8566 233.451 60.1762 232.783 59.7333C232.371 59.4591 232.347 59.5446 232.499 60.8305C232.593 61.6206 232.561 62.1842 232.428 62.1238C232.298 62.0635 232.11 62.1616 232.011 62.3403C231.718 62.8662 232.966 63.8047 233.564 63.5078C233.929 63.3292 234.026 63.3619 233.885 63.616C233.772 63.8173 233.846 64.0539 234.041 64.1444C234.31 64.2627 234.224 64.3986 233.702 64.688C233.318 64.9019 232.922 65.234 232.82 65.4202C232.71 65.6165 232.35 65.7373 231.969 65.7071C231.374 65.6568 231.332 65.7071 231.525 66.2305C231.823 67.0407 231.76 68.1932 231.311 69.8238C230.998 70.9687 230.789 71.2883 230.145 71.5928C229.648 71.8338 229.163 72.0966 228.691 72.3804C228.325 72.6068 227.905 72.8283 227.759 72.8836C226.906 73.1705 225.757 74.0889 225.509 74.6803C225.188 75.4503 224.695 75.405 224.695 74.6048C224.695 74.3179 224.575 74.1015 224.429 74.1267C223.896 74.2173 224.181 73.5832 225.159 72.5087C225.869 71.7236 226.407 71.3613 227.028 71.2556C227.699 71.1373 227.976 70.9385 228.208 70.3799C228.404 69.9118 228.722 69.6174 229.121 69.5495C229.946 69.4061 230.322 68.5329 230.322 66.7564C230.322 65.6366 230.45 65.1459 230.852 64.698C231.306 64.1948 231.405 63.6412 231.525 60.8229C231.622 58.5507 231.577 57.5467 231.377 57.5819C231.22 57.6071 231.087 58.06 231.087 58.5834C231.087 59.9296 230.393 61.4772 228.558 64.2199C227.527 65.765 226.686 66.4091 225.919 66.2405C225.525 66.1575 224.692 67.0458 224.692 67.5541C224.692 67.7176 224.387 68.1479 224.014 68.5103L223.327 69.1695L223.894 69.854C224.276 70.3086 224.438 70.8395 224.379 71.4468C224.306 72.2168 224.147 72.4231 223.299 72.866L222.299 73.3869L222.262 72.4005C222.238 71.9563 222.238 71.5111 222.262 71.0668C222.288 70.8781 222.134 70.8253 221.923 70.9461C221.38 71.248 221.14 70.7624 221.482 70.0603C221.73 69.5545 221.691 69.4816 221.218 69.5646C220.916 69.6149 220.37 69.9068 220.005 70.2138C219.183 70.9008 218.992 70.7674 219.347 69.7659L219.616 68.9934L218.572 69.932C217.606 70.8001 217.562 70.9008 217.951 71.2681C218.217 71.5198 218.478 71.56 218.663 71.3713C219.016 71.019 220.422 71.0039 220.422 71.3537C220.422 71.4871 220.203 71.7161 219.947 71.857C219.6 72.0799 219.285 72.3464 219.01 72.6496C218.551 73.1604 218.559 73.2359 219.305 74.3909C219.872 75.2641 220.02 75.7245 219.84 76.0819C219.686 76.3939 219.697 76.5574 219.866 76.5272C220.542 76.4115 218.436 80.2011 217.17 81.3837C216.687 81.8342 215.568 82.5261 214.683 82.9262C213.279 83.5629 213.07 83.744 213.02 84.358C212.916 85.6388 211.815 86.512 211.447 85.6061C211.337 85.3369 211.494 84.9695 211.89 84.5795C212.23 84.2423 212.433 83.9101 212.347 83.8372C212.049 83.5855 210.964 84.2272 210.614 84.8588C210.301 85.425 210.374 85.5835 211.35 86.4843C212.279 87.3474 212.431 87.6519 212.431 88.7062C212.431 89.7832 212.339 89.9845 211.695 90.3821C211.276 90.6466 210.91 90.9816 210.614 91.371C210.144 92.0907 209.499 92.1637 209.499 91.4968C209.499 91.1949 209.325 90.9936 209.095 91.0313C208.979 91.0473 208.861 91.0262 208.758 90.9712C208.656 90.9162 208.575 90.8304 208.529 90.7268C208.445 90.518 208.208 90.3746 208.007 90.4123C207.8 90.4475 207.639 90.289 207.639 90.0676C207.639 89.8461 207.513 89.6901 207.367 89.7153C207.062 89.7656 207.01 92.1939 207.307 92.5587C207.411 92.6921 207.819 92.9437 208.202 93.1249C208.411 93.2376 208.594 93.3905 208.739 93.574C208.884 93.7576 208.988 93.9678 209.045 94.1918C209.124 94.5944 209.272 95.1782 209.377 95.4927C209.528 95.9557 209.463 96.0841 209.038 96.1571C208.244 96.2929 207.179 95.3216 206.858 94.1717C206.702 93.608 206.388 93.0293 206.169 92.8833C205.9 92.7072 205.783 92.1536 205.809 91.1798C205.83 90.1984 205.71 89.6272 205.425 89.3907C205.164 89.1525 204.963 88.8599 204.838 88.5351C204.655 87.9866 204.303 87.9262 204.039 88.4018C203.948 88.5653 203.64 88.7415 203.356 88.7893C202.954 88.8597 202.841 88.6886 202.841 88.0293C202.802 87.4559 202.587 86.9066 202.223 86.4516C201.905 86.0866 201.635 85.6852 201.419 85.2564C201.281 84.9041 201.15 84.8739 200.889 85.1381C200.699 85.3318 200.158 85.581 199.689 85.6992C199.219 85.815 198.848 86.0616 198.848 86.2503C198.848 86.4365 198.483 86.8442 198.044 87.1486C197.606 87.4531 197.248 87.8004 197.248 87.9262C197.248 88.052 196.658 88.666 195.943 89.285C194.664 90.3871 194.643 90.4526 194.669 91.751C194.683 92.6518 194.842 93.2054 195.168 93.4797C196.081 94.2446 195.703 96.0237 194.589 96.2174C194.207 96.2829 194.03 94.9744 194.333 94.3478C194.797 93.3916 194.411 93.4193 193.68 94.3931C193.096 95.1732 192.976 95.2386 192.649 94.9392C191.986 94.3302 190.031 89.748 189.99 88.7062C189.953 87.8004 189.885 87.7173 189.327 87.9211C188.695 88.1501 187.656 87.6292 187.656 87.0757C187.651 86.9146 187.338 86.5346 186.957 86.2352C186.338 85.747 186.017 85.7294 183.898 86.0515C182.473 86.2704 181.366 86.3107 181.131 86.1522C180.808 85.9358 180.732 85.9685 180.732 86.3283C180.732 86.5699 181.152 86.897 181.666 87.0555C182.752 87.3927 182.904 88.2281 182.063 89.2221C181.771 89.5693 181.533 89.9367 181.533 90.0424C181.533 90.4047 179.803 92.0303 179.33 92.1133C179.072 92.1561 178.657 92.4706 178.407 92.8103C178.156 93.15 177.832 93.452 177.678 93.4797C177.527 93.5048 177.094 93.7439 176.715 94.0081C176.014 94.4535 175.285 94.8577 174.533 95.2185C173.236 95.8551 173.077 96.0035 173.325 96.3634C173.581 96.7308 173.769 96.7182 174.977 96.225C175.726 95.923 176.6 95.5431 176.919 95.3845C178.589 94.5617 176.775 99.31 174.502 101.711L173.153 103.14L172.714 103.485L172.056 104.34C170.916 105.815 170.61 106.66 170.746 107.991C170.817 108.673 170.963 109.358 171.072 109.511C171.182 109.665 171.292 110.543 171.318 111.466C171.357 112.969 171.286 113.21 170.681 113.796C170.308 114.156 169.874 114.476 169.71 114.509C169.548 114.541 169.084 114.969 168.676 115.457C168.102 116.149 167.982 116.464 168.152 116.897C168.522 117.85 168.228 119.237 167.559 119.659C167.202 119.886 166.891 120.389 166.795 120.887C166.612 121.856 164.701 124.974 163.751 125.862C163.182 126.396 160.15 127.528 158.761 127.729C158.106 127.825 157.493 127.125 157.654 126.466C157.782 125.95 156.968 124.136 156.323 123.507C156.12 123.306 155.788 122.332 155.595 121.343C155.248 119.569 154.616 118.097 154.097 117.86C153.512 117.596 153.993 114.896 154.82 113.781C154.935 113.629 155.013 113.453 155.048 113.268C155.084 113.082 155.075 112.891 155.024 112.709C154.907 112.345 154.82 111.972 154.763 111.595C154.627 110.555 154.084 109.564 153.155 108.686C152.646 108.205 152.226 107.634 152.226 107.413C152.226 107.392 152.186 107.387 152.186 107.372L152.241 107.357L152.434 106.703L152.617 105.691C152.831 104.511 152.474 104.189 151.385 104.577C150.842 104.768 150.571 104.692 150.242 104.242C149.738 103.55 148.976 103.618 147.528 104.489C146.959 104.828 145.779 105.269 144.902 105.46C144.197 105.614 143.493 105.771 142.79 105.933C142.117 106.094 139.444 104.682 139.17 104.021C139.053 103.736 138.526 103.157 137.999 102.737C137.471 102.317 137.046 101.768 137.046 101.509C137.046 101.472 137.025 101.439 137.02 101.401V173.136C137.325 173.036 137.777 172.749 138.106 172.432C138.471 172.079 138.959 171.757 139.191 171.715C139.424 171.672 139.779 171.299 139.982 170.879C140.522 169.764 141.838 168.504 142.409 168.557C142.676 168.582 142.965 168.479 143.046 168.33C143.127 168.179 143.576 167.998 144.043 167.917C144.513 167.837 145.317 167.482 145.829 167.137C146.598 166.614 146.742 166.377 146.679 165.779C146.619 165.2 146.721 165.031 147.154 164.958C147.452 164.908 147.689 165.024 147.689 165.217C147.689 165.411 147.859 165.771 148.065 166.015C148.394 166.41 148.807 166.403 151.659 165.922C153.434 165.62 154.888 165.293 154.888 165.185C154.888 165.076 155.198 164.727 155.579 164.407C156.232 163.864 156.295 163.851 156.53 164.236C156.691 164.5 157.125 164.593 157.761 164.49C158.304 164.405 159.171 164.41 159.685 164.505C160.901 164.732 162.53 164.553 162.741 164.166C162.835 164 163.18 163.816 163.511 163.758C163.845 163.703 164.407 163.292 164.761 162.85C165.252 162.238 165.581 162.052 166.137 162.069C166.539 162.08 166.868 162.007 166.842 161.901C166.677 160.834 167.254 160.703 168.329 161.574C169.381 162.422 170.438 162.404 170.558 161.533C170.605 161.189 170.968 160.683 171.373 160.401C171.787 160.113 172.158 159.771 172.474 159.385C172.959 158.71 175.037 157.377 175.371 157.528C175.515 157.593 175.742 157.427 175.88 157.153C176.034 156.851 176.298 156.692 176.572 156.75C176.89 156.818 176.995 156.725 176.937 156.405C176.843 155.849 178.159 154.941 179.299 154.775C180.294 154.629 181.604 155.202 181.426 155.706C181.246 156.204 183.801 156.435 186.631 156.171C188.716 155.977 188.959 156.013 189.22 156.549C189.476 157.072 189.575 157.087 190.05 156.707C190.533 156.32 190.7 156.36 191.537 157.115C192.331 157.827 192.563 157.91 193.002 157.595C193.289 157.392 193.451 157.107 193.359 156.971C193.124 156.629 194.223 155.323 195.037 154.976C195.405 154.82 195.635 154.629 195.546 154.553C195.458 154.478 195.518 154.231 195.685 154C195.912 153.68 195.904 153.428 195.643 152.981C195.374 152.502 195.374 152.289 195.643 151.914C195.938 151.503 196.032 151.503 196.418 151.894C196.985 152.467 197.705 152.435 198.798 151.785C199.61 151.307 199.707 151.302 200.067 151.76C200.406 152.195 200.641 152.206 201.852 151.861C203.541 151.378 203.911 151.051 203.911 150.041C203.911 149.392 204.024 149.249 204.59 149.153C204.961 149.088 205.323 149.196 205.404 149.392C205.639 149.971 206.349 149.971 206.879 149.397C207.263 148.98 207.448 148.927 207.751 149.128C208.051 149.329 208.184 149.284 208.362 148.932C208.664 148.33 209.614 148.436 210.024 149.113C210.199 149.402 210.744 149.765 211.238 149.913C212.104 150.18 212.162 150.16 213.255 149.231C214.599 148.086 214.866 148.018 215.32 148.678C215.513 148.954 215.834 149.08 216.043 148.965C216.158 148.91 216.287 148.888 216.414 148.902C216.542 148.915 216.663 148.963 216.763 149.04C217.194 149.4 218.238 149.503 218.726 149.231C218.929 149.115 219.096 148.673 219.096 148.242C219.096 147.319 219.417 147.188 219.942 147.9C220.245 148.305 220.43 148.34 220.814 148.056C221.398 147.628 223.079 147.777 223.283 148.278C223.518 148.856 224.115 148.507 224.288 147.689C224.444 146.924 224.499 146.889 225.723 146.798C226.945 146.707 227.018 146.665 227.344 145.812C227.537 145.308 227.756 145.059 227.918 145.057C228.067 145.064 228.164 145.321 228.07 145.837C227.97 146.375 228.085 146.546 228.641 146.667C229.432 146.833 231.23 146.926 232.794 146.876C234.109 146.836 234.347 146.944 234.156 147.48C234.052 147.769 234.263 147.958 234.803 148.071C235.242 148.162 235.602 148.333 235.602 148.449C235.602 148.564 236.317 148.539 237.189 148.391C237.335 148.366 237.38 148.378 237.505 148.361V113.839C237.048 114.871 236.68 115.87 236.68 116.144C236.68 116.512 236.51 116.738 236.184 116.793C235.91 116.841 235.38 117.171 235.007 117.531C234.25 118.265 234.187 118.293 233.906 118.059C233.796 117.966 233.172 117.968 232.52 118.062C231.217 118.25 230.366 117.82 230.236 116.912C230.176 116.491 229.871 116.328 229.043 116.267C227.957 116.192 227.488 116.006 227.488 115.643C227.485 115.19 226.616 114.506 225.893 114.38C224.828 114.199 221.229 115.545 221.229 116.127C221.229 116.237 220.681 116.504 220.01 116.71C219.339 116.917 218.457 117.342 218.052 117.654C217.41 118.147 217.212 118.192 216.549 117.984C215.839 117.762 215.784 117.626 215.758 116.132C215.74 115.107 215.534 114.154 215.192 113.512C214.803 112.777 214.673 112.078 214.727 110.966C214.813 109.237 214.962 108.832 215.469 108.94C215.659 108.983 215.967 108.799 216.155 108.537C216.343 108.276 216.682 108.029 216.904 107.991C217.126 107.954 217.765 107.704 218.332 107.438C219.141 107.053 219.454 106.708 219.806 105.85C220.052 105.246 220.349 104.793 220.464 104.846C220.579 104.899 220.999 104.519 221.396 104C222.106 103.074 223.165 102.616 223.492 103.092C223.761 103.487 224.001 103.318 224.481 102.385C224.729 101.897 225.128 101.466 225.363 101.426C225.624 101.381 225.708 101.24 225.598 101.076C225.462 100.88 225.632 100.815 226.183 100.86C226.722 100.895 227.263 100.884 227.801 100.827C228.931 100.691 229.064 100.868 228.594 101.869C228.198 102.715 228.198 102.72 229.385 103.24C230.038 103.527 230.674 103.744 230.794 103.721C231.063 103.676 231.353 102.287 231.353 101.054C231.353 100.563 231.554 99.924 231.799 99.6321C231.902 99.5046 231.987 99.4165 232.055 99.3679C232.107 99.331 232.153 99.3192 232.193 99.3326C232.319 99.3729 232.418 99.6598 232.606 100.281C232.815 100.971 233.123 101.434 233.344 101.396C233.684 101.338 234.279 102.725 234.279 103.578C234.279 103.754 234.639 104.051 235.077 104.237C235.519 104.423 235.879 104.657 235.879 104.758C235.879 104.858 236.179 105.176 236.542 105.462C236.907 105.747 237.207 106.091 237.21 106.232C237.21 106.293 237.411 106.474 237.505 106.602V95.8073C237.161 96.032 236.768 96.1783 236.356 96.2351C234.973 96.3659 234.895 96.9145 236.153 97.7197C236.73 98.0896 237.139 98.4997 237.066 98.6356C236.816 99.086 235.229 98.8495 234.344 98.2255C233.305 97.4957 233.065 97.5008 232.687 98.2808C232.353 98.9678 231.298 99.237 230.834 98.7463C230.616 98.5249 230.251 98.5081 229.737 98.696C228.876 99.0206 228.808 98.92 229.289 98.0594C229.534 97.6064 229.534 97.4202 229.289 97.2139C228.944 96.927 227.18 96.5471 226.605 96.6402C226.203 96.7031 225.783 96.3558 225.269 95.538C224.972 95.0599 224.972 94.9215 225.269 94.6775C225.426 94.6473 225.679 94.5567 225.953 94.4862C226.208 94.4065 226.482 94.3749 226.749 94.3931L226.775 94.3881C226.96 94.3956 227.229 94.6875 227.37 95.0423L227.631 95.6865L228.375 95.0272L229.114 94.3579L231.236 94.6775C232.462 94.8611 233.621 95.231 233.981 95.5481C234.482 95.9885 234.764 96.0337 235.409 95.7796C235.853 95.6035 236.367 95.4147 236.547 95.3569C236.73 95.299 237.082 95.0096 237.33 94.7127C237.4 94.6296 237.442 94.6372 237.505 94.5743V48.888C237.132 48.9836 236.949 48.9484 236.949 48.6666C236.949 48.4829 236.907 48.3898 236.761 48.3772ZM165.396 58.1632C165.148 58.2059 165.143 58.3594 165.37 58.8073C165.631 59.3257 166.354 59.3433 166.354 58.8325C166.354 58.5305 165.743 58.1028 165.396 58.1632ZM236.85 61.2708C236.904 61.2834 236.946 61.3312 236.946 61.4168C236.946 61.5627 236.761 61.7841 236.529 61.915C236.268 62.0584 236.148 62.0232 236.213 61.8143C236.312 61.4973 236.675 61.2331 236.85 61.2708ZM235.657 61.9578C236.08 61.8848 235.777 62.5265 235.132 63.07C234.793 63.3543 234.55 63.4449 234.55 63.2814C234.55 62.919 235.305 62.0182 235.657 61.9578ZM160.998 62.5567C160.96 62.5399 160.918 62.5343 160.877 62.5406C160.837 62.5469 160.799 62.5647 160.768 62.5919C160.601 62.7252 160.625 62.9744 160.833 63.2763C161.188 63.7821 161.444 63.4072 161.186 62.768C161.153 62.678 161.086 62.6009 160.998 62.5567ZM158.229 63.1706C158.706 63.0876 158.756 63.6563 158.31 64.1822C157.855 64.7207 157.477 64.7232 157.667 64.1872C157.756 63.9356 157.832 63.6211 157.832 63.4827C157.832 63.3493 158.009 63.2059 158.229 63.1706ZM182.841 70.9008C182.668 70.932 182.507 71.0047 182.371 71.1121C181.69 71.6003 181.622 72.5213 182.267 72.5565C182.831 72.5867 182.744 72.6622 183.084 71.9375C183.397 71.2807 183.238 70.8555 182.841 70.9008ZM178.292 71.0392C178.062 70.9862 177.823 70.9897 177.595 71.0492C176.781 71.2254 175.538 72.174 175.301 72.8031C175.076 73.3969 175.614 74.6929 176.483 75.6541C176.942 76.1624 177.198 76.6002 177.044 76.6254C176.89 76.6506 176.627 76.955 176.457 77.2998C176.196 77.8382 176.261 77.9943 176.916 78.4246C177.334 78.7014 177.83 78.8372 178.028 78.7341C178.217 78.6332 178.419 78.5554 178.628 78.5026C178.994 78.4422 178.923 77.3023 178.524 76.7638C178.328 76.5046 178.148 75.9108 178.119 75.4427C178.088 74.9193 177.759 74.2978 177.269 73.8398C176.747 73.3491 176.58 73.0321 176.799 72.9214C177.068 72.7533 177.31 72.5462 177.514 72.3074C177.644 72.1739 177.799 72.0664 177.972 71.9913C178.145 71.9161 178.332 71.8747 178.521 71.8695C179.116 71.8821 179.135 71.8494 178.777 71.3764C178.661 71.2132 178.489 71.094 178.292 71.0392ZM169.128 72.6999C168.964 72.7105 168.803 72.753 168.656 72.8247C168.509 72.8965 168.378 72.9961 168.272 73.1176C167.867 73.5957 167.891 73.6209 168.546 73.5102C168.937 73.4422 169.329 73.2535 169.418 73.0874C169.566 72.8207 169.392 72.6924 169.128 72.6999ZM166.085 73.5932C165.798 73.6008 165.445 73.719 165.289 73.9329C165.132 74.1468 164.722 74.9395 164.375 75.6868C163.827 76.8795 163.796 77.0934 164.138 77.3778C164.628 77.7904 165.539 77.6244 166.207 77.0003C166.876 76.3738 168.068 76.175 168.577 76.6027C169.029 76.9802 170.809 76.7512 171.417 76.2379C171.748 75.956 171.657 75.79 170.882 75.2565C169.394 74.2273 168.559 74.0235 167.818 74.4941C167.314 74.8111 167.097 74.8162 166.753 74.5268C166.515 74.328 166.388 74.0436 166.466 73.8977C166.586 73.6838 166.369 73.5832 166.085 73.5932ZM178.686 75.0955C178.637 75.129 178.611 75.1861 178.608 75.2666C178.608 75.4251 178.728 75.5283 178.874 75.5031C179.02 75.4779 179.14 75.4075 179.14 75.3421C179.14 75.2766 179.02 75.1659 178.874 75.1005C178.797 75.067 178.735 75.0653 178.686 75.0955ZM154.971 75.8629C154.927 75.8755 154.87 76.0013 154.768 76.2605C154.623 76.6245 154.677 76.8829 154.93 77.0355C155.138 77.1639 155.519 77.569 155.78 77.9364C156.041 78.3038 156.37 78.5151 156.511 78.4019C156.652 78.2912 156.838 78.3692 156.924 78.5781C157.01 78.7919 157.299 78.9983 157.566 79.036C158.054 79.1115 158.492 79.7808 158.244 80.0727C158.171 80.1608 157.913 80.0979 157.67 79.9369C157.271 79.6726 157.245 79.6928 157.409 80.191C157.54 80.5836 157.43 80.9459 157.044 81.3988C156.744 81.7562 156.501 82.1613 156.501 82.2997C156.501 82.808 155.966 82.9539 155.159 82.6746C154.194 82.3349 154.246 81.7662 155.256 81.5725C156.464 81.346 156.728 80.7521 155.903 80.1231C155.512 79.8211 155.078 79.5972 154.94 79.6198C154.653 79.6701 153.165 78.2685 152.967 77.7653C152.862 77.496 152.607 77.5891 151.792 78.1855C151.035 78.7391 150.623 78.8976 150.292 78.7668C149.723 78.5428 149.308 78.8523 149.308 79.499C149.308 79.7683 148.89 80.3797 148.376 80.8654C147.786 81.419 147.442 81.9776 147.442 82.3701C147.442 83.2836 146.327 84.5493 145.275 84.8311C144.782 84.9645 144.377 85.1935 144.377 85.3419C144.377 85.825 146.134 85.4149 147.04 84.7179C147.906 84.051 152.724 82.5891 153.502 82.7551C153.906 82.8457 153.948 84.5367 153.554 84.8512C153.126 85.1935 154.113 85.664 154.966 85.5306C155.422 85.4795 155.88 85.6004 156.245 85.8678C157.132 86.6127 158.631 86.8265 158.631 86.2075C158.631 85.2941 160.236 84.2574 160.904 84.743C161.045 84.8437 161.843 85.0249 162.673 85.1356C163.817 85.2916 164.409 85.2312 165.111 84.9141C165.628 84.6801 166.14 84.587 166.267 84.6927C166.662 85.0249 167.716 84.3807 167.974 83.6509C168.11 83.2685 168.22 82.4683 168.22 81.8769C168.22 80.8805 168.173 80.8226 167.619 81.1069C167.288 81.273 166.779 81.4316 166.487 81.4542C166.194 81.4768 165.638 81.5549 165.247 81.6228C164.203 81.7989 163.159 81.5121 163.159 81.044C163.159 80.8176 163.028 80.6565 162.861 80.6842C162.705 80.7119 162.626 80.4854 162.705 80.1734C162.78 79.8639 162.744 79.6248 162.624 79.645C162.504 79.6651 162.475 79.4286 162.551 79.1216C162.66 78.6863 162.559 78.5806 162.107 78.6586C161.786 78.7139 161.603 78.8624 161.695 78.9983C161.786 79.1316 161.674 79.3455 161.444 79.4764C160.951 79.7507 160.888 80.3923 161.348 80.4678C161.781 80.5383 161.037 82.2141 160.538 82.2946C160.105 82.3651 159.421 81.5951 159.421 81.0214C159.419 80.7924 159.184 80.337 158.897 80.0149C158.61 79.6953 158.372 79.1669 158.372 78.8398C158.367 78.4455 157.964 78.0396 157.164 77.6219C156.503 77.2771 155.963 76.8242 155.963 76.6153C155.963 76.3964 155.809 76.3209 155.593 76.4417C155.371 76.5675 155.167 76.4593 155.097 76.1825C155.044 75.9636 155.013 75.8604 154.971 75.8629ZM152.575 78.4673C153.163 78.2484 153.202 81.4114 152.617 81.7385C152.395 81.8644 152.155 81.814 152.082 81.6329C151.8 80.9409 152.163 78.6208 152.575 78.4673ZM219.558 79.6173C219.655 79.5921 219.71 79.6777 219.783 79.8589C219.968 80.3168 219.433 82.2544 219.104 82.3097C218.984 82.3299 218.817 82.1714 218.728 81.9524C218.439 81.2378 218.559 80.6138 219.094 80.03C219.329 79.7733 219.464 79.6399 219.558 79.6173ZM149.206 81.2781C149.297 81.268 149.373 81.2806 149.409 81.3359C149.605 81.6253 149.206 82.1537 148.838 82.0908C148.655 82.0556 148.506 81.9298 148.506 81.809C148.506 81.5825 148.929 81.3108 149.206 81.2781ZM219.115 84.0007C219.195 83.994 219.3 84.0007 219.431 84.0208C220.151 84.1215 220.062 84.046 220.271 84.7003C220.323 84.8638 220.329 85.0379 220.288 85.2043C220.246 85.3707 220.159 85.5234 220.036 85.6464C219.436 86.2553 219.54 86.4818 220.43 86.5271C221.041 86.5573 221.226 86.7133 221.226 87.2015C221.226 87.8054 221.192 87.8255 220.506 87.584C220.112 87.4456 219.725 87.4128 219.645 87.516C219.566 87.6167 219.65 87.7299 219.835 87.7676C219.998 87.791 220.155 87.8474 220.294 87.933C220.433 88.0187 220.552 88.1317 220.643 88.2647C220.734 88.3977 220.795 88.5476 220.822 88.7048C220.848 88.862 220.84 89.0228 220.798 89.1768C220.615 89.9468 220.986 89.9996 221.581 89.295C222.213 88.5502 222.743 89.3957 222.602 90.9055C222.555 91.4188 222.111 91.7082 221.427 91.673C221.171 91.6604 220.965 91.4566 220.965 91.2301C220.965 90.9231 220.79 90.8929 220.297 91.1043C219.801 91.3131 219.629 91.2754 219.629 90.9659C219.629 90.7344 219.812 90.4526 220.028 90.3318C220.378 90.1355 220.378 90.0474 220.028 89.602C219.807 89.3149 219.669 88.9762 219.629 88.6207C219.629 88.3565 219.524 88.1602 219.391 88.1828C219.026 88.2457 218.235 85.8477 218.564 85.6816C218.713 85.6061 218.835 85.1859 218.835 84.743C218.835 84.2121 218.872 84.0284 219.115 84.0007ZM176.337 84.3253C176.25 84.3212 176.165 84.3432 176.091 84.3882C176.003 84.4461 175.943 84.5468 175.943 84.6902C175.943 84.8915 176.18 85.2815 176.473 85.5483C176.765 85.815 177.008 86.1522 177.008 86.3031C177.008 86.4541 177.19 86.4717 177.412 86.351C177.702 86.1874 177.809 86.3182 177.809 86.8316C177.809 87.8079 178.816 87.6016 179.777 86.4239L180.51 85.5181L179.779 85.7848C178.892 86.1119 177.49 85.6338 177.135 84.8789C177.066 84.7261 176.955 84.5941 176.815 84.4967C176.674 84.3993 176.509 84.3401 176.337 84.3253ZM167.635 87.1813C167.613 87.1812 167.591 87.1857 167.571 87.1943C167.551 87.203 167.532 87.2157 167.518 87.2317C167.343 87.4355 167.969 88.7163 169.214 90.7143C169.397 91.0036 169.543 91.5094 169.546 91.834C169.546 92.1611 169.671 92.4757 169.82 92.5436C169.968 92.6116 170.261 93.0419 170.464 93.4998C170.668 93.9603 171.072 94.3705 171.365 94.4158C171.66 94.4585 171.965 94.6598 172.049 94.8611C172.312 95.5456 172.526 95.1807 172.338 94.3327C172.103 93.2633 170.981 91.4918 170.472 91.3836C170.261 91.3358 170.086 90.9961 170.086 90.6212C170.067 90.2035 169.885 89.8081 169.577 89.514C169.289 89.2674 169.06 88.9624 168.909 88.6207C168.679 87.9664 167.959 87.1864 167.635 87.1813ZM218.413 88.6257C218.822 88.5553 218.491 89.5593 217.885 90.2336C217.076 91.132 216.56 91.3106 216.954 90.5582C217.332 89.8361 218.222 88.6584 218.413 88.6257ZM138.912 91.2603C139.058 91.2351 139.183 91.3307 139.183 91.4717C139.183 91.6101 139.061 91.8164 138.915 91.9322C138.766 92.0504 138.648 91.9573 138.648 91.7258C138.648 91.4968 138.766 91.2855 138.912 91.2603ZM216.721 91.3282L217.619 91.9045L218.527 92.4782L217.945 93.0821C217.39 93.6634 217.387 93.7112 217.818 94.3956C218.099 94.841 218.162 95.1254 217.974 95.1581C217.867 95.1757 217.823 95.2285 217.823 95.2788C217.815 95.2889 217.309 95.8526 217.267 95.8903C217.165 96.1859 217.091 96.49 217.048 96.7987C217.001 96.8817 216.954 96.9396 216.909 97.0252C216.257 98.3261 216.262 98.3211 214.299 98.3915C213.934 98.4041 213.425 98.4293 213.169 98.4494C213.108 98.4547 213.046 98.4476 212.988 98.4284C212.93 98.4092 212.877 98.3784 212.832 98.338C212.788 98.2976 212.752 98.2486 212.728 98.194C212.704 98.1395 212.693 98.0808 212.694 98.0216C212.488 97.3498 212.211 96.7635 212.068 95.8752C212.089 95.835 212.096 95.8098 212.123 95.767C212.3 95.3418 212.577 95.0801 212.791 95.1279C212.992 95.1707 213.307 94.9945 213.495 94.7353C213.683 94.4761 213.997 94.227 214.192 94.1943C214.391 94.1591 214.683 93.8672 214.84 93.5451C214.996 93.223 215.283 92.9311 215.484 92.8959C215.68 92.8632 216.04 92.4933 216.283 92.0806L216.721 91.3282ZM137.774 91.5648C137.878 91.5732 137.992 91.6059 138.116 91.6629C138.432 91.8114 138.445 91.9271 138.181 92.2366C137.941 92.5235 137.85 92.5461 137.85 92.3171C137.85 92.136 137.667 92.1083 137.417 92.2467C137.124 92.4111 137.02 92.3641 137.103 92.1058C137.183 91.8525 137.312 91.6864 137.49 91.6075C137.579 91.5674 137.676 91.5525 137.774 91.5648ZM219.355 91.6906C219.511 91.6654 219.634 91.7661 219.634 91.9145C219.634 92.063 219.582 92.1913 219.517 92.2039C219.454 92.214 219.329 92.1158 219.237 91.9825C219.149 91.8491 219.201 91.7157 219.355 91.6906ZM223.275 93.2784C223.458 93.2281 223.667 93.379 223.847 93.7439L224.152 94.373C223.969 94.6145 223.774 94.8184 223.63 95.0524C223.604 95.0297 222.941 95.1279 222.743 94.3679C222.813 94.2571 222.861 94.134 222.884 94.0056C222.944 93.5753 223.092 93.3287 223.275 93.2784ZM236.688 93.5527C236.831 93.5275 236.951 93.6332 236.951 93.7791C236.951 93.8529 236.925 93.9243 236.877 93.9819C236.829 94.0395 236.762 94.0797 236.688 94.0962C236.539 94.1213 236.422 94.0207 236.422 93.8747C236.422 93.7263 236.542 93.5778 236.688 93.5527ZM234.704 93.6307C234.931 93.5929 235.049 93.6936 234.957 93.8571C234.869 94.0207 234.678 94.1767 234.54 94.2019C234.401 94.227 234.292 94.1188 234.292 93.9704C234.292 93.8219 234.475 93.6684 234.704 93.6307ZM221.8 93.8622C221.96 93.8999 221.965 94.1063 221.735 94.4283C221.667 94.5189 221.649 94.5869 221.623 94.6397L220.879 94.8939C220.253 95.1304 219.491 95.2512 219.104 95.7544C219.104 95.8903 219.342 95.8928 219.634 95.7645C219.72 95.7268 219.725 95.7041 219.799 95.6638L220.06 95.5884L220.89 95.5632L220.843 95.6311C220.756 95.7016 220.647 95.7595 220.574 95.8375C220.182 96.2476 220 96.6427 220.125 96.7912C220.242 96.9321 220.323 97.2869 220.323 97.5813C220.302 98.2733 219.454 98.5979 219.29 97.9814C219.211 97.6845 219.162 97.7927 219.136 98.2808C219.112 98.8545 218.992 99.0458 218.64 99.0357C218.384 99.0307 218.17 98.7841 218.17 98.4922C218.173 98.2109 218.106 97.9331 217.974 97.6819C217.865 97.5284 217.891 97.0554 218.039 96.6377C218.154 96.3131 218.165 96.2099 218.196 96.0639C218.269 95.8576 218.588 94.9819 218.588 94.9316L218.554 94.9492C218.709 94.7616 218.911 94.6153 219.141 94.5241C219.371 94.433 219.622 94.4 219.869 94.4283C220.313 94.4485 220.903 94.3 221.184 94.0987C221.308 94.0074 221.445 93.9345 221.592 93.8823C221.658 93.8574 221.73 93.8504 221.8 93.8622ZM204.496 94.6498H204.507C204.963 94.6498 205.634 94.8586 206.307 95.2537C207.273 95.8224 207.986 96.1772 208.604 96.4112C209.111 97.0705 209.178 97.5737 209.951 97.5083C210.361 97.2793 211.107 97.7222 211.107 98.2028C211.107 98.3563 211.285 98.384 211.504 98.2607C211.726 98.1374 211.903 98.1777 211.903 98.3613C211.903 98.5727 211.676 98.6708 211.24 98.6331C210.643 98.5853 210.572 98.6658 210.572 99.3679C210.572 100.249 211.131 100.415 213.221 100.153C213.874 100.072 214.448 100.135 214.508 100.296C214.563 100.455 214.837 100.546 215.119 100.498C215.442 100.442 215.633 100.598 215.633 100.925C215.633 101.371 215.489 101.441 214.503 101.484C213.879 101.512 213.161 101.466 212.916 101.383C212.541 101.29 212.148 101.278 211.768 101.348C211.338 101.41 210.9 101.377 210.486 101.253C209.646 100.946 207.255 98.998 206.84 98.2833L206.488 97.6769L206.138 97.1057V97.0856C206.133 97.073 206.091 97.0604 206.091 97.0478V97.0327C205.963 96.849 205.613 96.6326 205.219 96.5345C204.402 96.3332 203.919 95.7771 203.919 95.0373C203.919 94.8863 203.998 94.7806 204.128 94.7177C204.242 94.6662 204.37 94.6446 204.496 94.6498ZM224.914 96.0715C225.119 96.1285 225.224 96.2476 225.227 96.4288C225.227 96.7182 222.414 97.385 222.148 97.1585C221.834 96.8968 222.142 96.6402 223.186 96.303C223.5 96.2023 223.781 96.1302 224.032 96.0866C224.322 96.021 224.622 96.0159 224.914 96.0715ZM222.641 99.315C222.902 99.2899 223.09 99.4157 223.09 99.7227C223.085 99.9139 222.625 100.362 222.069 100.717C220.835 101.502 220.699 101.534 220.699 101.019C220.699 100.797 220.801 100.598 220.918 100.578C221.036 100.558 221.404 100.241 221.733 99.8736C222.038 99.5365 222.375 99.3452 222.641 99.315ZM220.193 100.1C221.093 100.095 220.511 100.513 218.588 100.923C217.095 101.24 216.68 101.25 216.768 100.966C216.847 100.712 217.473 100.495 218.796 100.261C219.428 100.155 219.893 100.102 220.193 100.1ZM166.784 104.504C166.385 104.574 166.027 105.291 166.286 105.508C166.474 105.666 167.157 105.017 167.157 104.682C167.157 104.551 166.988 104.468 166.784 104.504ZM176.089 109.924C176.311 109.909 176.574 110.037 176.736 110.316C177.075 110.903 177.094 111.937 176.773 112.808C176.637 113.172 176.251 114.531 175.914 115.827C175.421 117.724 175.175 118.243 174.672 118.525C173.748 119.038 173.333 119.053 173.066 118.575C172.544 117.636 172.479 116.705 172.876 115.86C173.093 115.389 173.205 114.828 173.116 114.612C172.798 113.832 173.273 112.825 174.223 112.264C174.732 111.96 175.149 111.524 175.149 111.295C175.149 111.066 175.264 110.857 175.41 110.832C175.556 110.807 175.682 110.603 175.682 110.379C175.682 110.09 175.864 109.939 176.089 109.924ZM172.939 110.057C172.991 110.094 173.017 110.17 173.017 110.286C173.017 110.759 172.855 110.857 172.625 110.523C172.544 110.399 172.597 110.201 172.745 110.08C172.822 110.024 172.886 110.019 172.939 110.057ZM173.591 110.387C173.693 110.4 173.793 110.441 173.87 110.505C174.272 110.842 174.048 111.109 173.549 110.883C173.333 110.789 173.252 110.606 173.361 110.477C173.414 110.409 173.5 110.384 173.591 110.387ZM179.941 114.629C179.975 114.622 180.01 114.623 180.043 114.631C180.076 114.639 180.107 114.654 180.133 114.676C180.16 114.697 180.18 114.724 180.194 114.754C180.208 114.785 180.214 114.818 180.213 114.851C180.211 114.925 180.184 114.997 180.134 115.054C180.085 115.111 180.017 115.15 179.941 115.165C179.795 115.19 179.678 115.09 179.678 114.944C179.679 114.871 179.705 114.8 179.753 114.743C179.801 114.686 179.867 114.646 179.941 114.629ZM228.706 115.392C228.63 115.407 228.56 115.447 228.51 115.505C228.459 115.563 228.43 115.636 228.427 115.711C228.427 115.857 228.479 115.973 228.542 115.963C228.607 115.95 228.738 115.799 228.829 115.636C228.918 115.472 228.86 115.364 228.706 115.392ZM235.093 119.018C235.594 118.98 235.618 119.144 235.618 119.75C235.618 120.58 234.944 121.587 234.318 121.695C234.14 121.728 233.817 121.363 233.605 120.885C232.997 119.519 233.078 119.335 234.415 119.111C234.639 119.07 234.866 119.039 235.093 119.018ZM137.025 181.037V186.911C140.124 185.438 143.349 184.225 146.664 183.287C158.184 180.016 172.641 178.28 187.033 177.268C203.83 176.113 220.677 175.762 237.51 176.216V169.674C205.446 168.977 163.731 170.089 137.025 181.037ZM34.6947 12.5926C27.9792 12.5624 26.4341 12.6379 23.49 12.6958V176.216C40.3235 175.762 57.17 176.113 73.9674 177.268C88.3589 178.28 102.816 180.016 114.336 183.285C117.651 184.224 120.876 185.437 123.975 186.911V26.6689C123.97 26.1506 123.871 25.5492 121.738 24.0746C119.603 22.5975 115.738 20.9292 110.823 19.5452C100.991 16.7873 87.0774 14.9907 73.1348 13.964C59.1922 12.9374 45.2 12.6379 34.6947 12.5926ZM97.2068 19.3263C98.7076 19.2936 100.441 19.3288 102.437 19.4496C107.242 19.7365 110.622 21.3545 113.339 22.0917C119.658 23.8028 121.378 25.144 121.814 25.446C122.571 25.9669 122.725 26.5708 122.153 26.757C121.96 26.8224 122.093 26.9004 122.446 26.9331C122.983 26.9835 123.082 27.1521 123.082 27.9573C123.082 28.6241 122.957 28.9034 122.66 28.8858C122.365 28.8682 122.226 29.15 122.226 29.7992C122.226 30.3125 122.07 30.7856 121.874 30.851C121.592 30.9441 121.592 30.9718 121.874 31.0071C122.396 31.07 122.331 32.8792 121.803 33.0428C121.203 33.229 121.276 33.6391 121.947 33.848C122.537 34.0342 122.72 34.7614 122.237 35.0181C122.083 35.1011 121.712 35.0231 121.407 34.847C121.015 34.6205 120.788 34.6104 120.658 34.8067C120.553 34.9627 120.736 35.1716 121.065 35.2747C121.449 35.3955 121.66 35.6824 121.66 36.085C121.66 36.9028 120.397 37.1846 119.687 36.5228C119.243 36.1076 119.149 36.1127 118.679 36.5857C118.17 37.0991 118.176 37.1091 118.99 37.0034C120.13 36.8575 120.919 37.4866 120.6 38.2968L120.36 38.9058L119.561 38.1509C118.298 36.943 118.332 37.5268 119.601 38.8278C120.23 39.4719 120.718 39.9953 120.681 39.9928C120.647 39.9903 120.707 40.564 120.814 41.2661L121.013 42.5368L119.916 42.3305C119.298 42.2147 118.891 42.2349 118.977 42.3808C119.066 42.5217 119.454 42.6576 119.838 42.6828C120.217 42.7029 120.522 42.8765 120.514 43.0627C120.488 43.717 117.831 45.4784 116.268 45.876C114.026 46.4447 113.903 46.5126 113.368 47.5569C112.762 48.7345 111.671 49.5121 110.416 49.663C109.868 49.731 109.45 49.9499 109.45 50.1663C109.45 50.3752 109.354 50.5412 109.239 50.5337C109.124 50.5261 108.994 50.969 108.952 51.515C108.91 52.0661 108.753 52.6549 108.599 52.8235C108.448 52.9921 108.406 53.2161 108.508 53.3218C108.613 53.4275 108.482 53.4979 108.229 53.4828C107.934 53.4652 107.824 53.6086 107.929 53.8703C108.017 54.1018 107.939 54.897 107.749 55.6393C107.438 56.8673 107.331 56.9855 106.6 56.9427C106.039 56.91 105.744 56.7263 105.614 56.3237C105.483 55.9287 105.227 55.7576 104.786 55.7878C104.594 55.7918 104.404 55.7587 104.225 55.6904C104.047 55.6221 103.884 55.52 103.748 55.3902C103.179 54.7661 101.821 52.0183 101.597 51.0294C101.471 50.5135 101.269 50.0178 100.997 49.5574C100.013 48.035 100.37 44.4568 101.524 44.2328C101.819 44.1775 102.043 43.7799 102.116 43.176C102.215 42.3607 102.14 42.1946 101.62 42.0663C101.151 41.9505 101.038 42.0285 101.143 42.416C101.336 43.1433 99.9787 43.342 99.334 42.6803C98.8772 42.2147 98.8798 42.1317 99.3862 41.261C99.8795 40.4055 99.9969 40.3527 100.976 40.5389L102.035 40.7351L101.346 40.0809C100.968 39.7185 100.717 39.3461 100.79 39.2505C100.866 39.1549 100.78 39.1926 100.592 39.3336C100.12 39.6909 99.2348 39.6003 99.1957 39.1851C99.1278 38.4881 99.2922 37.7407 99.5819 37.4161C99.7907 37.1821 99.7907 36.8952 99.5819 36.4599C99.1957 35.6547 98.3813 33.0377 98.3813 32.5999C98.3813 32.4137 98.1804 32.0438 97.9403 31.7745C97.6692 31.4484 97.4782 31.0673 97.3817 30.6598C97.2329 29.9049 97.3739 30.0383 95.8705 29.218L94.649 28.5461L93.6807 29.0418C92.8795 29.4495 92.5584 29.4721 91.8433 29.1903C90.9428 28.833 90.2747 27.9472 90.5696 27.5043C90.6636 27.3609 90.413 27.1093 90.0137 26.9382C89.1002 26.5507 89.0897 25.9694 89.9745 25.3529L90.6557 24.8798L89.7083 24.3262C87.6177 23.1134 86.699 19.5553 97.2068 19.3263ZM63.0941 21.5532C64.1486 21.6011 64.8689 21.6891 64.6941 21.7495C64.5218 21.8074 64.4435 22.1572 64.5166 22.5296C64.621 23.0681 64.4931 23.2543 63.8902 23.4405C62.9193 23.7374 62.9741 23.75 62.5382 23.1385C62.3118 22.8359 62.015 22.5886 61.6717 22.4163C61.3976 22.3031 61.1758 22.0389 61.1758 21.8376C61.1758 21.5658 61.6873 21.4853 63.0941 21.5532ZM70.4752 21.9609C71.6523 21.976 72.0412 22.3132 71.3261 22.7082C70.7414 23.0278 69.4469 22.9196 69.118 22.5195C68.7291 22.0439 68.9875 21.9408 70.4752 21.9609ZM73.0957 22.0842C74.0457 22.1396 74.2649 22.2377 74.1344 22.5547C74.0283 22.8198 74.144 22.9624 74.4816 22.9825C75.1445 23.0228 75.369 23.2719 75.1811 23.7374C74.9723 24.2507 73.9335 24.13 73.2444 23.5109C72.9011 23.1984 72.5803 22.8638 72.2839 22.5094C71.9264 22.054 71.9995 22.0188 73.0957 22.0842ZM66.8943 22.4012C67.1396 22.1798 67.9905 23.1209 68.0558 23.6921C68.181 24.7314 67.4998 24.5904 67.1344 23.5009C66.9465 22.9448 66.8395 22.4491 66.8943 22.4012ZM60.3954 22.5573C60.5128 22.5975 60.6355 22.7435 60.8287 23.0203C61.1027 23.4128 61.168 23.6946 60.9853 23.7424C60.8208 23.7852 60.7477 24.1174 60.8182 24.4722C60.8887 24.832 60.8 25.1994 60.6277 25.29C60.4554 25.3806 60.3223 25.6649 60.3275 25.9191C60.3354 26.3443 60.3589 26.3418 60.6251 25.9191C60.9305 25.4284 62.0266 25.3328 62.0266 25.7958C62.0266 25.9467 62.2224 26.0801 62.4651 26.0977C62.7053 26.1103 63.1202 26.5028 63.3865 26.9709C63.6736 27.4741 64.1016 27.8315 64.4357 27.8516C64.8689 27.8768 64.9133 27.8189 64.6158 27.6201C64.3991 27.4741 64.3052 27.2351 64.407 27.0841C64.4555 27.009 64.4718 26.9186 64.4523 26.8322C64.4328 26.7457 64.3791 26.67 64.3026 26.6211C63.8536 26.3267 63.9554 25.7983 64.5949 25.1767C65.1978 24.5879 65.8686 24.6986 65.605 25.3428C65.5214 25.5441 65.5867 25.7958 65.7459 25.8989C65.9077 26.0046 65.973 26.2638 65.8895 26.4701C65.7851 26.7268 65.9547 26.8526 66.4297 26.8828C67.2519 26.9331 67.7347 27.7107 67.5103 28.6115C67.3537 29.2356 67.3693 29.2456 67.7765 28.7625C68.1941 28.2718 68.2045 28.2718 68.5308 28.8782C68.7135 29.218 68.7918 29.5023 68.7083 29.5174C68.3983 29.5477 68.0876 29.5704 67.7765 29.5853C65.6467 29.7061 64.6549 29.9049 63.9659 30.3327C63.0158 30.924 62.165 30.8762 61.69 30.2094C61.4864 29.9225 60.9017 29.4293 60.3954 29.1123C59.6933 28.6769 59.508 28.4077 59.6307 27.9925C59.7368 27.6234 59.7046 27.553 59.5341 27.7811C59.2809 28.1133 58.3335 27.8969 58.3335 27.5043C58.3335 27.1772 59.341 26.4601 59.7612 26.4852C60.0587 26.5028 60.0744 26.4248 59.8186 26.1657C59.5654 25.904 59.341 25.9945 58.8764 26.5381C58.4588 27.0237 58.1195 27.1772 57.8063 27.0288C57.5107 26.8965 57.192 26.8189 56.8667 26.7998C56.0941 26.7822 56.0315 26.0424 56.7492 25.3403C57.2327 24.845 57.6809 24.3187 58.0908 23.7651C58.4823 23.2266 58.9364 22.8995 59.1922 22.975C59.4297 23.0454 59.7925 22.9397 60.0013 22.7384C60.1631 22.5824 60.2779 22.5195 60.3954 22.5573ZM81.1997 22.6806C81.9566 22.6478 82.7996 22.6554 83.58 22.6906C85.146 22.7611 86.4667 22.9548 86.3753 23.2165C86.3101 23.4002 85.9708 23.5764 85.6184 23.604C85.1991 23.641 85.0399 23.7936 85.1408 24.062C85.2269 24.2835 85.0756 24.6785 84.8041 24.9352C84.1986 25.5114 84.0577 26.0474 84.5248 25.982C84.7154 25.9568 84.9164 26.1984 84.9686 26.523C85.0338 26.9507 84.7858 27.2577 84.0864 27.6352C82.9719 28.2316 82.4212 28.2768 82.6326 27.756C82.737 27.4968 82.5021 27.3886 81.7713 27.3634C81.218 27.3433 80.7664 27.4263 80.7664 27.5446C80.7664 27.6654 80.1401 27.6427 79.3649 27.4943C78.2948 27.2955 77.8511 27.3282 77.5248 27.6251C77.1385 27.9749 77.1986 28.0705 78.0912 28.5335C79.023 29.0141 79.1848 29.0217 80.5133 28.6769C81.6721 28.375 82.0845 28.375 82.7501 28.682C83.7001 29.1173 84.0394 29.764 83.58 30.2673C83.4025 30.4635 83.3243 30.8712 83.4026 31.1681C83.4809 31.465 83.3869 31.7519 83.1938 31.8123C82.7344 31.9557 77.3787 31.621 76.6531 31.4046C75.6717 31.1102 75.3742 30.6749 75.369 29.5073C75.3638 27.6578 75.121 27.1118 74.3798 27.2452C73.8891 27.3357 73.5916 27.1646 73.1296 26.5154C72.2291 25.2397 72.3414 24.7716 73.5211 24.8421C74.1997 24.8823 74.6251 25.0811 74.8652 25.4611C75.0967 25.8352 75.4099 25.9845 75.8048 25.909C75.9876 25.8791 76.1753 25.8967 76.3487 25.9599C76.5221 26.0232 76.6749 26.1298 76.7914 26.2688C77.1307 26.684 77.209 26.6538 77.5353 25.9241C77.7362 25.4762 78.0886 25.1189 78.3183 25.134C78.6915 25.1541 78.6915 25.0585 78.3365 24.3766C78.1121 23.9488 77.9294 23.521 77.9268 23.4279C77.9268 23.3323 78.5584 23.0932 79.331 22.897C79.9451 22.7663 80.571 22.6939 81.1997 22.6806ZM61.7161 24.4848C62.0162 24.4973 62.3085 24.7238 62.3085 25.0107C62.3085 25.3277 62.0006 25.3151 61.4942 24.9754C61.2254 24.7943 61.2071 24.6659 61.4263 24.5477C61.5146 24.5001 61.6152 24.4782 61.7161 24.4848ZM92.2818 24.603C92.039 24.5879 91.8381 24.6961 91.8381 24.8471C91.8381 24.9981 91.9634 25.1289 92.1095 25.1365C92.2557 25.144 92.4488 25.0358 92.548 24.8924C92.6446 24.7465 92.5271 24.6156 92.2818 24.603ZM71.6576 25.5643C71.7489 25.5743 71.8742 25.6599 72.0647 25.826C72.4432 26.148 72.5397 26.6438 72.498 28.1108L72.4458 29.9829L71.3235 29.915C70.2455 29.8495 70.2012 29.8093 70.3108 29.0796C70.4152 28.3926 70.3552 28.3247 69.7314 28.4001C69.0971 28.4807 69.0528 28.4228 69.2302 27.7509C69.3607 27.2645 69.3268 27.0732 69.1285 27.1772C68.5751 27.4741 67.8443 26.986 67.8026 26.2864C67.7556 25.4963 68.288 25.4057 68.9614 26.0952C69.2068 26.3468 69.4103 26.4525 69.4103 26.3267C69.4103 25.8511 70.5718 25.4435 70.9633 25.7807C71.2426 26.0197 71.3731 26.0122 71.4644 25.7555C71.514 25.6171 71.5688 25.5542 71.6576 25.5643ZM73.7586 28.4203C74.8287 28.4857 75.5856 30.7504 74.6356 31.0448C74.0431 31.2285 74.1397 31.2713 73.3854 30.4509C72.8138 29.8294 72.7642 29.6331 73.0461 29.0594C73.2235 28.692 73.5446 28.4077 73.7586 28.4203ZM56.2377 29.9502C56.7284 29.9049 57.0729 29.9099 57.3495 29.9678C57.6105 30.0211 57.8482 30.1502 58.0307 30.3377C58.3257 30.6095 58.8294 30.8108 59.153 30.7806C59.5576 30.7428 60.1083 31.1278 60.8861 31.9935C61.5125 32.6905 62.0188 33.3724 62.0188 33.5133C62.0188 33.6542 62.1467 33.7071 62.2981 33.624C62.4495 33.5435 62.8984 33.697 63.2925 33.9688C63.9659 34.4343 64.0102 34.4368 64.0102 33.9939C64.0102 33.551 64.0572 33.5511 64.7202 34.009C65.4118 34.4871 65.4275 34.4871 65.4275 33.8128C65.4275 33.4051 65.5919 33.1308 65.8268 33.1434C66.0434 33.156 66.2914 32.9849 66.3827 32.766C66.5498 32.3508 67.8469 32.2803 68.0897 32.6729C68.1654 32.7936 68.0792 33.395 67.907 34.0065C67.6748 34.718 67.6793 35.4818 67.92 36.1907C68.1027 36.777 68.3272 37.5419 68.4212 37.8867C68.5151 38.2314 68.7396 38.5258 68.9249 38.5409C69.4547 38.5862 70.5431 39.633 70.5431 40.0985C70.5431 40.33 70.3186 40.6269 70.0472 40.7553C69.7757 40.8836 69.6479 41.0874 69.7601 41.2032C70.1203 41.5706 69.3738 42.1166 68.5777 42.0688C68.2854 41.9757 67.4294 41.6838 67.3406 41.6762C67.3328 41.6762 64.929 42.1795 64.4957 42.25C64.1893 42.1853 63.8774 42.1474 63.5639 42.1367C63.0367 41.948 62.3294 42.3179 62.024 41.48C62.024 41.3089 61.5882 41.0069 61.0557 40.8056C60.184 40.4785 59.749 39.9937 59.7507 39.3512C59.7507 39.2254 60.1057 39.019 60.5337 38.8932L61.3089 38.6667L60.4215 38.5912C59.5158 38.5132 59.1844 38.1182 59.1844 37.1066C59.1844 36.8172 59.0539 36.5732 58.8973 36.5631C58.4979 36.5379 58.5449 35.6245 58.9703 35.2169C59.2627 34.9375 59.2105 34.925 58.6832 35.1539C58.3335 35.3049 58.0464 35.6824 58.0464 35.9843C58.0464 36.2863 57.8272 36.5882 57.5505 36.6663C57.2002 36.7834 56.8722 36.9551 56.5796 37.1746C56.1541 37.5017 56.0576 37.4513 55.6661 36.7015C55.426 36.241 55.0162 35.7704 54.7578 35.6597C54.4289 35.5188 54.348 35.2823 54.4785 34.8595C54.5829 34.5274 54.7134 33.9235 54.7787 33.5183C54.8439 33.1132 55.024 32.5496 55.1832 32.2728C55.3659 31.9582 55.3738 31.4474 55.2172 30.914C54.9692 30.0609 54.9849 30.0559 56.2377 29.9502ZM74.6329 31.8953C74.9983 31.8819 75.4551 31.97 76.0032 32.1595C77.1255 32.5521 77.2299 32.7156 76.8201 33.463C76.6792 33.7146 76.4234 34.2531 76.2538 34.6582C76.0841 35.0634 75.7657 35.3829 75.5438 35.3703C75.014 35.3376 74.7086 36.5581 75.074 37.2425C75.2359 37.5394 75.3664 37.9898 75.3664 38.239C75.3664 38.4881 75.6247 39.0266 75.9379 39.4292C76.3712 39.9878 76.4339 40.2419 76.1859 40.5112C75.9406 40.7829 75.9693 40.8685 76.3242 40.8886C76.6035 40.9063 76.7836 41.1453 76.7836 41.4976C76.7836 41.9933 76.8515 42.0361 77.2273 41.7593C77.8641 41.2862 78.5479 42.0688 78.5479 43.2766C78.5479 43.8 78.6576 44.4064 78.7959 44.6254C78.9395 44.8518 79.0491 44.8921 79.0517 44.7185C79.0517 44.5474 79.2683 43.9434 79.5319 43.3748C80.2523 41.8096 79.8503 40.2847 78.6967 40.2168C77.7362 40.1589 76.6975 37.9974 76.8958 36.475C77.1986 34.1298 78.0494 33.0528 79.5267 33.1434C80.2392 33.1862 80.4193 33.2944 80.2966 33.6014C80.1505 33.9537 80.2288 33.9587 80.9439 33.6442C82.2098 33.088 84.7023 33.5863 85.5166 34.5601C85.8664 34.9778 86.1587 35.4458 86.1639 35.5968C86.1822 36.1101 87.7169 37.9269 88.0588 37.8363C88.2467 37.786 88.6304 38.0301 88.9096 38.3773C89.1889 38.7246 89.5935 39.1549 89.8023 39.3361C91.0942 40.4533 91.8198 41.4372 91.6736 41.8725C91.5771 42.1644 91.6606 42.3607 91.8877 42.3783C92.1382 42.3984 92.0973 42.5209 91.765 42.7457C91.1099 43.1885 91.1386 43.6214 91.8355 43.878C92.1487 43.9913 92.4097 44.1926 92.4097 44.331C92.4097 44.4643 92.6289 44.5147 92.903 44.4366C93.1744 44.3612 93.3049 44.3888 93.1874 44.5071C93.0726 44.6229 93.4876 45.2016 94.1114 45.7929C95.3903 47.0083 95.4686 47.3631 94.6751 48.2916C94.3698 48.649 94.114 49.0969 94.1114 49.2831C94.1088 49.4693 93.9731 49.6177 93.8086 49.6077C93.4328 49.585 92.1252 48.1558 92.1121 47.7557C92.1069 47.5896 91.979 47.6475 91.825 47.8865C91.4909 48.4225 91.7545 49.2076 92.2792 49.2403C93.2031 49.2957 93.8974 52.5518 93.0361 52.7782C92.8429 52.8286 92.6889 52.7355 92.6889 52.5719C92.6889 52.4083 92.5767 52.2699 92.4436 52.2624C92.3105 52.2548 92.2635 52.5769 92.3392 52.9745C92.4906 53.742 92.5715 53.7294 90.7732 53.1205C90.4208 53.0022 90.1285 52.8084 90.1285 52.6851C90.1285 52.5593 89.8153 52.363 89.4316 52.2473C88.995 52.0903 88.6274 51.7937 88.3903 51.4068C87.6621 50.048 86.866 49.6102 85.8429 50.0002C85.0729 50.2946 84.3395 49.5146 84.5666 48.649C84.7363 48.0048 84.8746 47.9343 85.5454 48.1029C86.4458 48.3294 87.174 48.045 86.8869 47.577C86.7799 47.4009 86.9522 46.9504 87.2732 46.5755C87.5968 46.1981 87.8604 45.6193 87.8604 45.2922C87.8604 44.4719 86.3962 43.0678 85.7489 43.2666C85.3496 43.3924 85.2713 43.2917 85.3418 42.7658C85.441 42.0512 84.6188 40.6395 84.3421 41.0522C84.2482 41.1931 83.7131 41.2812 83.1546 41.2485C81.9383 41.173 81.5938 41.4095 82.215 41.8876C82.5621 42.1518 82.6639 42.6626 82.6404 43.9309C82.5987 45.9791 81.7139 47.2172 80.4846 46.953C79.8216 46.812 79.8556 46.885 80.897 47.8488C81.5207 48.4275 82.1289 48.9056 82.2489 48.9157C82.3664 48.9207 82.4629 49.0843 82.4629 49.273C82.4629 49.4642 82.7239 49.7889 83.0424 50.0027C83.3608 50.2116 83.5435 50.4959 83.4521 50.6343C83.2225 50.9791 81.9723 50.8835 81.7374 50.501C81.6173 50.3047 81.3328 50.3877 80.9283 50.7274C80.3802 51.1904 80.2079 51.2081 79.5424 50.8709C78.7933 50.4909 78.5819 50.0631 78.9682 49.7108C79.0778 49.6127 79.2004 49.2629 79.2448 48.9308L79.331 48.3269L78.9655 48.9333C78.7646 49.268 78.1878 49.7536 77.6919 50.0153C77.1934 50.277 76.7836 50.6494 76.7836 50.8407C76.7836 51.0319 76.3816 51.5301 75.891 51.9479C74.3093 53.2916 73.6646 55.6972 74.7896 56.0495C75.1445 56.1602 75.4133 56.5452 75.5203 57.0937C75.6587 57.8134 75.8231 57.9744 76.4861 58.0373C76.9298 58.0776 77.7128 58.4349 78.2348 58.8275C79.7042 59.9296 80.4689 60.302 81.3615 60.3549C82.1445 60.4052 82.1811 60.4656 82.1811 61.6231C82.1811 62.529 82.3612 63.0499 82.8858 63.6538C83.7993 64.7081 84.1777 64.2527 83.8436 62.5088C83.6192 61.3337 83.6609 61.2104 84.4544 60.5436C84.9242 60.1511 85.3026 59.7233 85.3026 59.5949C85.2974 58.8577 84.6658 57.3001 84.3082 57.1466C83.7601 56.91 83.7601 56.1199 84.3134 56.1551C84.6632 56.1753 84.7284 55.7928 84.6684 54.0565C84.611 52.2775 84.6658 51.9504 85.0208 52.0661C85.2557 52.1416 85.9656 52.2423 86.6024 52.2951C87.4846 52.3706 87.9335 52.5845 88.5025 53.211C88.9123 53.6615 89.463 54.0741 89.7266 54.1295C90.0737 54.2 90.2277 54.5321 90.2747 55.3323C90.3164 56.0117 90.5644 56.671 90.9141 57.0283C91.4518 57.5819 91.5092 57.5844 91.9033 57.1667C92.133 56.9226 92.4044 56.4017 92.5088 56.0067C92.6942 55.3071 93.545 55.0203 93.545 55.6569C93.545 55.8331 93.7225 56.1879 93.9417 56.437C94.1636 56.6886 94.6177 57.6951 94.9518 58.6765C95.6121 60.6141 95.9306 61.0544 96.9093 61.4117C97.2617 61.5426 97.6923 61.9578 97.8619 62.3327C98.0342 62.7051 98.3318 63.0171 98.5249 63.0297C98.9686 63.0549 99.2165 64.6075 98.8303 64.9572C98.6319 65.1317 98.6528 65.2265 98.8929 65.2416C99.1539 65.2567 99.1643 65.3925 98.932 65.7952C98.5797 66.4117 99.12 67.1716 99.9421 67.2219C100.247 67.2395 100.36 67.398 100.255 67.6547C100.164 67.8736 100.203 68.0573 100.334 68.0674C100.73 68.0926 100.918 69.2425 100.615 69.7735C100.388 70.166 100.224 70.2012 99.7751 69.9395C99.4645 69.7609 99.0913 69.6829 98.9477 69.7584C98.8042 69.8338 98.6136 69.7634 98.5144 69.6074C98.4179 69.4463 97.8959 69.2903 97.353 69.2551C96.4891 69.2048 96.3769 69.1217 96.4656 68.5883C96.5204 68.2536 96.8049 67.5314 97.092 66.9854C97.6793 65.8807 97.5044 65.39 96.7396 66.009C96.354 66.2751 95.9148 66.4603 95.4503 66.5526C94.8187 66.6683 94.7247 66.774 94.9883 67.0936C95.2493 67.4157 95.1815 67.4836 94.6412 67.4433C94.1969 67.3863 93.7754 67.2199 93.4171 66.9602C92.7881 66.4645 91.8355 66.3286 91.8355 66.7337C91.8355 66.8847 92.2348 67.0357 92.7229 67.0659C93.5633 67.1162 93.6024 67.1615 93.438 67.9491C93.2449 68.8651 93.5842 69.3834 94.5864 69.6929C94.9727 69.8162 95.265 69.7508 95.359 69.5168C95.5782 68.9783 96.0271 69.0915 96.2359 69.7382C96.4552 70.4126 96.0141 70.8504 94.6751 71.2757C94.1296 71.4518 93.485 71.7437 93.2396 71.9299C92.5349 72.4584 92.1252 72.2948 92.1017 71.472C92.0886 71.0593 92.0156 70.8655 91.9399 71.0417C91.8616 71.2178 91.3657 71.4695 90.8384 71.6053C89.8727 71.857 89.1785 72.8887 89.8127 73.1302C90.2486 73.2963 90.2199 73.7543 89.7762 73.7291C89.1211 73.6914 87.2393 74.1669 87.3959 74.328C87.482 74.4161 87.2314 75.0728 86.8399 75.7925C86.4406 76.5323 86.2057 77.3274 86.2996 77.6219C86.4223 77.9993 86.1744 78.3314 85.394 78.8498C83.5252 80.0878 82.7474 80.7773 82.7474 81.2001C82.7474 81.4265 82.9615 82.2745 83.2225 83.0873C83.6114 84.2976 83.6296 84.6323 83.3269 84.9645C83.1285 85.1859 82.8753 85.3646 82.7683 85.357C82.4838 85.3394 81.3328 83.2232 81.3328 82.7174C81.3328 82.1311 81.0875 82.0078 79.1926 81.6807C77.731 81.429 77.5614 81.4517 77.7206 81.8618C77.9189 82.3676 77.1907 82.3953 75.5099 81.9424C74.8992 81.7763 74.4059 81.8543 73.7664 82.2116C72.9573 82.6646 72.8477 82.881 72.6754 84.4763C72.4693 86.3736 72.7224 87.4103 73.6151 88.3212C74.3432 89.0686 76.3034 88.9277 76.4521 88.1199C76.5312 87.7835 76.7274 87.4834 77.008 87.2694C77.4831 86.9423 79.3414 86.9297 79.3414 87.2543C79.3414 87.4632 78.8246 89.0485 78.4618 89.9568C78.2348 90.518 78.2922 90.5633 79.3231 90.6262C81.1423 90.7344 81.3328 90.908 81.3328 92.5134C81.3328 94.3881 82.0949 95.4248 83.1755 95.0146C83.4097 94.9201 83.6625 94.8758 83.9162 94.8849C84.17 94.894 84.4186 94.9563 84.6449 95.0675C85.2974 95.3468 85.4906 95.304 85.9943 94.7655C86.5998 94.1163 88.9958 93.5023 88.9958 93.993C88.9958 94.1364 89.2463 94.1918 89.5543 94.1138C89.8597 94.0383 90.4026 94.1465 90.7549 94.3503C91.1099 94.5542 92.1382 94.7555 93.0439 94.8033C94.4402 94.8737 94.8161 95.0071 95.513 95.6638C97.4835 97.5209 98.2561 98.0594 99.0286 98.1047C100.417 98.1877 101.631 99.003 102.168 100.213C102.443 100.827 102.586 101.444 102.487 101.59C102.482 101.597 102.654 101.615 102.67 101.625L102.617 101.66L104.473 102.269L105.418 102.878C105.935 103.213 106.958 103.6 107.689 103.739C108.419 103.877 109.398 104.292 109.868 104.657C110.338 105.022 110.977 105.379 111.29 105.452C111.729 105.556 111.875 105.835 111.943 106.7C112.016 107.682 111.865 108.001 110.734 109.257C109.677 110.43 109.445 110.893 109.445 111.788C109.445 113.089 109.017 114.355 108.14 115.656C107.631 116.411 107.266 116.627 106.365 116.713C104.841 116.856 103.479 117.893 103.479 118.915C103.479 119.695 102.599 121.225 101.573 122.211C101.144 122.651 100.742 123.116 100.37 123.603C99.809 124.347 99.5715 124.456 98.7911 124.32C97.8724 124.161 97.721 124.36 98.1934 125.117C98.7728 126.048 97.2538 127.291 95.6617 127.196C95.1293 127.163 94.9179 127.352 94.7273 128.031C94.5211 128.761 94.3593 128.887 93.7277 128.809C93.3101 128.753 92.9734 128.824 92.9734 128.965C92.9734 129.106 93.1483 129.232 93.3649 129.244C94.0226 129.284 94.1375 130.082 93.5293 130.361C93.2214 130.5 92.9734 130.822 92.9734 131.073C92.9734 131.325 92.6237 131.793 92.193 132.11L91.41 132.689L92.0704 133.27C92.8142 133.924 92.7385 134.584 91.8329 135.319C91.5223 135.57 91.2717 135.905 91.2717 136.051C91.2717 136.202 91.0499 136.461 90.781 136.632C90.3686 136.899 90.353 137.06 90.6427 137.694C90.8332 138.104 90.9846 138.66 90.9846 138.927C90.9846 139.478 92.1147 140.673 92.6628 140.706C92.8612 140.719 92.9682 140.882 92.903 141.066C92.7881 141.393 90.7758 141.416 89.3377 141.109C88.9027 141.016 88.7148 140.82 88.7739 140.52C88.8261 140.271 88.6199 139.926 88.3198 139.757C88.0089 139.578 87.7481 139.329 87.5603 139.03C87.1244 138.175 86.6624 135.475 86.7694 134.405C86.8477 133.6 86.7851 133.336 86.5189 133.419C86.297 133.487 86.1587 133.3 86.1587 132.925C86.1587 132.553 86.3727 132.281 86.7251 132.213C87.0383 132.153 87.2941 131.886 87.2941 131.614C87.2941 131.343 87.3724 130.928 87.4689 130.696C87.5855 130.411 87.4802 130.26 87.1531 130.243C86.7799 130.22 86.7042 130.067 86.8399 129.609C86.9391 129.277 87.0957 128.207 87.1818 127.236C87.2706 126.262 87.5864 124.901 87.8865 124.211C88.1867 123.522 88.4268 122.435 88.4268 121.786C88.4268 121.134 88.6252 119.647 88.8601 118.482C89.095 117.317 89.2829 115.497 89.2829 114.443C89.2829 112.79 89.1915 112.45 88.6408 111.977C88.2885 111.67 87.897 111.413 87.7639 111.398C86.9626 111.323 85.7594 109.896 84.731 107.8C84.0942 106.509 83.3269 105.216 83.0241 104.931C82.4682 104.416 82.2829 103.391 82.6822 103.029C82.7996 102.923 82.8962 102.45 82.8962 101.972V101.109L83.319 100.513C83.319 100.4 83.6714 99.9642 84.0994 99.5465C84.5275 99.1263 84.838 98.5274 84.7963 98.2179C84.5509 96.3458 84.3943 95.8576 84.0159 95.835C83.9619 95.8322 83.9078 95.8402 83.8572 95.8585C83.8065 95.8769 83.7604 95.9052 83.7216 95.9416C83.6829 95.978 83.6524 96.0217 83.632 96.0701C83.6117 96.1184 83.602 96.1703 83.6035 96.2225C83.6035 96.683 82.8806 96.7358 82.6117 96.298C82.5454 96.2112 82.4605 96.1391 82.3628 96.0865C82.2651 96.034 82.1568 96.0023 82.0453 95.9935C81.5207 95.9608 79.6572 94.6825 79.6285 94.3352C79.5789 93.7263 78.561 92.8758 77.3552 92.4354C76.6505 92.1788 75.7109 91.6629 75.2646 91.2829C74.6434 90.757 74.2414 90.6212 73.5524 90.7042C72.8738 90.7872 72.0908 90.5331 70.3943 89.6876C67.6799 88.3313 67.0848 87.8255 67.291 87.0455C67.4032 86.6227 67.1266 86.122 66.2261 85.1507C64.3104 83.0797 62.9062 81.2705 62.6009 80.4779C62.4469 80.0753 62.1832 79.7381 62.0266 79.7305C61.5647 79.7028 61.6874 80.118 62.3764 80.9333C62.7287 81.3485 63.3343 82.2972 63.7232 83.042C64.112 83.7868 64.5975 84.5015 64.7933 84.6348C64.895 84.7107 64.9789 84.8063 65.0396 84.9156C65.1004 85.0249 65.1365 85.1453 65.1456 85.2689C65.1456 85.4879 64.989 85.6539 64.7933 85.6363C64.2686 85.5935 62.8097 84.1995 63.0002 83.9177C63.0889 83.7843 62.7496 83.3716 62.2407 83.0017C61.8825 82.7452 61.5284 82.4835 61.1784 82.2166C61.1053 82.1563 61.2306 82.0078 61.4551 81.8895C61.8048 81.6983 61.7918 81.5876 61.3585 81.1397C61.0792 80.8528 60.552 80.0501 60.1918 79.3531C59.8186 78.6309 59.1844 77.8886 58.7224 77.642C57.741 77.1136 57.5009 76.8066 56.3264 74.5293C55.4521 72.8383 55.4129 72.6295 55.379 69.3205C55.3477 66.2657 55.2824 65.8228 54.8022 65.458C53.1448 64.1897 52.6098 63.5229 52.9491 63.153C53.2101 62.8611 53.1735 62.612 52.7794 61.9955C52.5001 61.5677 52.106 61.1098 51.8972 60.9764C51.6884 60.843 51.5136 60.4329 51.5136 60.0605C51.5136 59.6906 51.2552 59.1571 50.942 58.8828C50.6288 58.6085 50.3782 58.221 50.3782 58.0323C50.3782 57.5592 49.4804 56.525 49.2011 56.6735C49.0758 56.7414 48.8931 56.4722 48.7913 56.0847C48.6791 55.6418 48.4155 55.3726 48.0788 55.3549C47.7839 55.3348 46.9565 54.8517 46.2388 54.2805C45.3331 53.5608 44.6388 53.2261 43.9602 53.1859C43.4043 53.1532 42.496 52.7984 41.854 52.3706C41.2328 51.9529 40.7212 51.7289 40.7212 51.8673C40.7212 52.0082 40.883 52.1869 41.0788 52.2624C41.3581 52.3681 41.3554 52.4838 41.0579 52.8109C40.8517 53.0399 40.5046 53.1557 40.288 53.0626C40.0713 52.9695 39.6041 53.0701 39.2492 53.2891C38.2017 53.9349 37.7824 53.7697 37.9912 52.7933L38.1686 51.9428L37.597 52.6046C37.2838 52.972 37.1011 53.4576 37.1899 53.6866C37.2786 53.9156 37.2186 54.1773 37.0516 54.2654C36.9632 54.3173 36.8895 54.3895 36.8371 54.4756C36.7847 54.5616 36.7553 54.6589 36.7514 54.7586C36.7566 54.9372 36.8923 54.8743 37.0516 54.6202C37.2108 54.3686 37.5187 54.1698 37.7354 54.1823C38.4453 54.2251 38.0538 55.4657 37.109 56.1728L36.1955 56.8622L36.2764 55.8985C36.3651 54.8265 36.4408 54.8039 34.3972 56.4823C33.7551 57.0107 33.1261 57.373 33.0008 57.2875C32.8703 57.207 32.7712 57.3378 32.7712 57.5794C32.7712 57.8235 32.6433 57.9417 32.4945 57.8436C32.3457 57.7455 31.7715 57.826 31.2156 58.0172C30.0098 58.4299 29.7879 58.44 29.7879 58.1053C29.7879 57.8411 31.782 56.5628 32.1578 56.5854C32.5441 56.6106 34.1153 55.0756 34.2693 54.5271C34.392 54.0842 34.3345 54.0339 33.9065 54.2276C33.5307 54.3987 33.3506 54.3459 33.2331 54.0465C33.1209 53.7546 32.826 53.669 32.2257 53.7495C31.4479 53.8552 31.3879 53.8099 31.5001 53.2161C31.6071 52.6549 31.5131 52.5618 30.8476 52.5266C30.2395 52.4989 30.0724 52.3605 30.0646 51.8875C30.0594 51.5578 29.7514 51.0118 29.3808 50.6796C28.7726 50.1336 28.7387 50.0103 29.0754 49.4265C29.446 48.7773 31.3618 47.5066 31.9125 47.5393C32.2779 47.5594 32.2961 46.8297 31.9386 46.5956C31.9034 46.5726 31.8638 46.5568 31.8221 46.549C31.7804 46.5412 31.7375 46.5417 31.696 46.5504C31.6545 46.5591 31.6153 46.5759 31.5807 46.5996C31.5461 46.6234 31.5169 46.6537 31.4949 46.6887C31.3957 46.8397 31.1608 46.8599 30.9755 46.7315C30.7449 46.5899 30.4878 46.4933 30.2186 46.4472C29.9249 46.4095 29.6317 46.3684 29.339 46.3239C28.8588 46.2534 28.2271 45.1337 28.2271 44.3486C28.2271 43.8428 29.5739 43.0149 30.3282 43.0602C30.5788 43.0753 30.7823 43.2741 30.7823 43.4981C30.7823 43.7245 30.9703 43.9233 31.2052 43.9359C31.4401 43.951 31.6384 43.7195 31.6384 43.415C31.6384 43.1131 31.5131 42.8614 31.3644 42.8488C31.213 42.8413 30.5187 42.26 29.8192 41.563C28.8535 40.6018 28.5821 40.1564 28.7022 39.7185C28.8144 39.3109 29.0832 39.1524 29.6261 39.1826C30.2421 39.2203 30.4874 39.0316 30.8841 38.1911C31.3539 37.1896 33.0896 35.9416 33.7891 36.1026C33.9587 36.1403 34.3267 35.9441 34.606 35.6648C35.0549 35.2118 35.1985 35.2018 35.8588 35.5616C36.2686 35.7855 36.955 36.0699 37.383 36.1957C37.8137 36.3215 38.1686 36.5455 38.1686 36.6914C38.1686 36.8399 38.5575 36.9833 39.0299 37.011C39.5023 37.0387 40.3454 37.2727 40.9065 37.5319C41.4677 37.791 42.4151 38.0351 43.0102 38.0729C43.6053 38.1106 44.1638 38.249 44.2499 38.3874C44.3361 38.5258 44.8398 38.7472 45.367 38.8731C45.8942 38.9989 46.5493 39.3612 46.8286 39.6758C47.5594 40.4986 48.1075 40.4357 50.0572 39.2983C51.2761 38.5837 51.9573 38.3472 52.3644 38.4956C52.7429 38.634 52.9204 38.5963 52.8708 38.3773C52.8264 38.1937 52.9517 37.9999 53.15 37.9395C53.3588 37.8791 53.6981 38.2817 53.9774 38.9133L54.4498 39.9903L54.7421 39.2581C55.0814 38.4 55.3659 38.327 55.5617 39.0668C55.6635 39.4468 55.8879 39.5701 56.3812 39.5072C56.7753 39.4568 57.6758 39.7588 58.5188 40.2168C59.3175 40.6521 60.2832 41.022 60.659 41.0472C61.0197 41.0741 61.364 41.2038 61.6482 41.4196L62.178 42.2248C62.212 42.3003 62.058 42.4815 61.8022 42.6526C61.3663 42.947 61.4368 42.9973 62.3921 43.0602C62.9897 43.103 63.7153 43.0225 64.0102 42.8891C64.3652 42.7281 64.6001 42.7432 64.715 42.9344C64.8141 43.0904 65.0803 43.2288 65.3074 43.2439C65.939 42.8363 66.7168 41.9254 68.5647 42.8916C68.8518 42.9067 69.1572 43.0376 69.2433 43.1785C69.332 43.3194 69.841 43.4528 70.376 43.4704C71.1538 43.4955 71.3705 43.3748 71.4722 42.874C71.5505 42.4714 71.4618 42.2399 71.2112 42.2248C70.7049 42.1946 70.7153 42.1317 71.4409 40.9868L72.0621 40.0155L72.9965 41.0522C73.589 41.709 74.0039 41.9832 74.1266 41.7995C74.2362 41.636 73.9883 41.2057 73.5811 40.8433C72.9913 40.3199 72.8503 39.9576 72.8634 39.0115C72.8738 38.3623 73.0643 37.5646 73.2914 37.2425C73.5968 36.8122 73.6568 36.2611 73.5159 35.1539C73.2288 32.9396 73.5341 31.9356 74.6329 31.8953ZM70.5431 32.4363C70.8406 32.4095 71.2469 32.4095 71.762 32.4363L72.8425 32.4866L72.6859 33.4428C72.5789 34.077 72.6598 34.5425 72.9208 34.8092C73.4767 35.3804 73.2914 36.7996 72.5815 37.3935C71.7541 38.0905 71.3104 37.9898 70.8693 37.006C70.6605 36.543 70.3578 36.1554 70.1907 36.1454C69.7731 36.1202 69.1389 35.2219 69.1259 34.6431C69.1154 34.0895 69.6974 34.0417 70.196 34.5551C70.6344 35.003 70.6344 34.6582 70.196 33.8656C69.6531 32.8792 69.6426 32.5168 70.5431 32.4363ZM85.6289 43.7094C85.7672 43.672 85.9134 43.672 86.0517 43.7094C86.4302 43.8025 86.5867 44.0818 86.5867 44.6656C86.5867 45.3526 86.4563 45.486 85.8011 45.5187C85.1486 45.5514 85.0234 45.4558 85.026 44.9248C85.0312 44.2504 85.2556 43.8176 85.6289 43.7094ZM57.6836 45.101C57.6402 45.089 57.5948 45.0855 57.55 45.0907C57.5051 45.0959 57.4618 45.1096 57.4226 45.1311C57.2347 45.2352 57.2643 45.3744 57.5113 45.5489C57.7567 45.7149 57.7985 45.881 57.6184 46.0018C57.0703 46.3641 56.5535 47.0989 56.838 47.1165C56.9972 47.1266 57.1982 46.9655 57.2817 46.7567C57.3652 46.5478 57.8245 46.3239 58.2996 46.2509C59.401 46.0848 59.722 45.6445 58.785 45.5866C58.3935 45.564 57.9968 45.418 57.8976 45.2595C57.8499 45.1822 57.7733 45.1255 57.6836 45.101ZM84.5588 50.6947C84.778 50.7073 85.0286 50.9111 85.1199 51.1401C85.2844 51.5629 84.7206 51.6962 84.3552 51.3238C84.0368 50.9967 84.1412 50.6696 84.5588 50.6947ZM81.9905 51.3993C82.4395 51.5201 82.4395 51.5754 82.0271 52.119C81.5938 52.6851 80.756 52.8915 80.756 52.4335C80.756 51.9353 81.539 51.281 81.9905 51.3993ZM28.9606 51.4723C29.4878 51.505 29.6653 51.6383 29.5974 51.9655C29.4956 52.4612 29.1276 52.6021 28.5821 52.358C27.9296 52.0661 28.201 51.427 28.9606 51.4723ZM62.4155 51.7742C62.272 51.6836 61.844 51.8849 61.4577 52.2196C60.6303 52.9317 61.0923 53.0802 62.0319 52.4008C62.3894 52.1466 62.5591 51.8648 62.4155 51.7742ZM83.5696 52.275C83.9715 52.3001 84.0785 52.4461 83.9689 52.8537C83.7993 53.4652 83.4835 53.7093 83.212 53.435C82.8075 53.0223 83.0476 52.2423 83.5696 52.275ZM29.0467 58.4022C29.1789 58.4022 29.2981 58.4358 29.4043 58.5029C29.5556 58.6035 29.4486 58.835 29.1641 59.0263C28.5012 59.4716 28.2245 59.4591 28.2245 58.9835C28.2245 58.6564 28.6578 58.3972 29.0467 58.4022ZM50.3443 59.6C50.7697 59.6251 50.9446 59.8088 50.9602 60.2492C50.9733 60.5889 51.0385 61.1475 51.1038 61.4923C51.2473 62.2421 51.1638 62.2597 50.5792 61.6005C50.2856 61.2185 50.0696 60.7865 49.9423 60.3272C49.7753 59.673 49.8327 59.5723 50.3443 59.6ZM71.8977 61.988C71.6419 61.9779 71.6549 62.0584 71.9525 62.2597C72.1874 62.4208 72.2787 62.5516 72.1508 62.5466C72.0256 62.5416 72.0073 62.6699 72.1117 62.836C72.3779 63.2688 72.6285 62.9542 72.4249 62.4384C72.3335 62.1993 72.096 61.998 71.8977 61.988ZM78.5949 67.1741C78.2817 67.1665 77.9816 67.2647 77.5823 67.4685C76.7105 67.9114 76.4808 68.465 77.2795 68.1957C78.2582 67.8661 78.7933 67.8082 78.7489 68.0447C78.6445 68.5681 78.7959 68.7443 79.2213 68.6134C79.4509 68.5408 79.6898 68.4994 79.9313 68.4901C80.3932 68.5178 80.2053 67.7528 79.6911 67.5088C79.2318 67.2873 78.9081 67.1816 78.5949 67.1741ZM81.2415 69.5822C81.1971 69.6426 81.3119 69.9144 81.5677 70.5208C81.8261 71.1272 82.0688 71.628 82.108 71.6305C82.1471 71.633 82.1785 71.2933 82.1785 70.8781C82.1785 70.4327 81.9592 69.9798 81.6382 69.7684C81.5442 69.7017 81.4457 69.6412 81.3433 69.5872C81.2911 69.5638 81.2589 69.5621 81.2415 69.5822ZM79.6833 69.6929C79.6245 69.6936 79.5663 69.7038 79.511 69.7231C79.0595 69.864 78.7802 70.6516 78.775 71.7915C78.775 72.2394 78.8925 72.4961 79.0569 72.408C79.2135 72.3225 79.2657 71.9501 79.1691 71.5777C79.1228 71.3481 79.119 71.112 79.1683 70.883C79.2176 70.654 79.3137 70.4368 79.451 70.244C79.7198 69.8666 79.7929 69.708 79.6833 69.6929ZM82.7135 69.7533C82.5569 69.7433 82.5047 69.8666 82.6013 70.0226C82.6979 70.1786 82.9093 70.3145 83.0659 70.3245C83.2225 70.3346 83.2694 70.2138 83.1729 70.0578C83.0763 69.9018 82.8701 69.7634 82.7135 69.7533ZM84.4178 83.9328C84.8198 83.9152 85.3052 84.2096 85.3052 84.587C85.3052 84.7959 85.24 84.9645 85.1617 84.9594C85.0834 84.9544 85.0181 84.8261 85.0181 84.6751C85.0181 84.5241 84.7389 84.3857 84.397 84.3656C83.9663 84.3404 83.8593 84.2473 84.0577 84.0636C84.1585 83.9814 84.2857 83.9351 84.4178 83.9328ZM33.3401 84.041C33.4967 84.0485 33.6194 84.1794 33.6194 84.3304C33.6199 84.3654 33.6128 84.4001 33.5985 84.4323C33.5843 84.4645 33.5632 84.4935 33.5367 84.5175C33.5102 84.5414 33.4788 84.5597 33.4445 84.5713C33.4102 84.5828 33.3737 84.5873 33.3375 84.5845C33.2617 84.5778 33.1911 84.5448 33.1387 84.4915C33.0863 84.4383 33.0559 84.3685 33.053 84.2951C33.053 84.1441 33.1835 84.0309 33.3401 84.041ZM34.0631 84.3555C34.5668 84.3857 36.4643 85.8251 36.4643 86.1773C36.4643 86.278 36.2633 86.4189 36.0258 86.4919C35.737 86.5808 35.5056 86.4021 35.3316 85.9559C35.188 85.5885 34.8096 85.1884 34.4911 85.0727C33.9744 84.8839 33.6429 84.3304 34.0631 84.3555ZM84.5144 85.0349C84.5564 85.0245 84.6003 85.0234 84.6428 85.0317C84.6853 85.04 84.7252 85.0574 84.7597 85.0827C85.1017 85.3092 85.099 86.0515 84.7545 86.0314C84.6058 86.0213 84.4074 85.8804 84.3108 85.7269C84.136 85.4451 84.2873 85.0978 84.5144 85.0349ZM81.9853 86.1673C82.3168 86.1849 82.7422 86.288 83.4208 86.4868C84.3004 86.7435 85.0181 87.0329 85.0181 87.126C85.0181 87.2191 85.7228 87.6393 86.5841 88.057C87.8865 88.6861 88.1423 88.9251 88.1423 89.5064C88.1423 90.1003 88.0144 90.1934 87.2654 90.1481C86.7851 90.1204 86.3362 90.0424 86.2736 89.977C86.0047 89.7027 86.1848 89.4007 86.5998 89.4259C86.8425 89.441 86.96 89.3227 86.8634 89.1667C86.7668 89.0107 86.2553 88.8597 85.7281 88.827C85.1121 88.7893 84.6319 88.5754 84.397 88.2332C83.9011 87.521 82.1993 87.0555 81.8653 87.5387C81.6617 87.828 81.5677 87.8255 81.3798 87.5286C81.2389 87.3122 80.9309 87.2292 80.6281 87.3223C79.8451 87.5663 80.2288 86.7963 81.1031 86.3736C81.3696 86.2224 81.6766 86.1506 81.9853 86.1673ZM87.1505 86.7234C87.3854 86.7385 87.5786 86.8618 87.5786 87.0027C87.5786 87.3474 87.1322 87.5714 86.9052 87.3374C86.5841 87.0102 86.7094 86.6982 87.1505 86.7234ZM87.6542 87.8255C87.9935 87.8784 87.9283 88.2508 87.5629 88.3464C87.375 88.3942 87.2706 88.291 87.3332 88.1149C87.3958 87.9387 87.542 87.8054 87.6542 87.8255ZM89.0715 88.749C89.7762 88.7918 90.982 89.5643 90.982 89.977C90.982 90.1204 90.6244 90.2135 90.1886 90.1883C89.7501 90.1632 89.2594 90.2613 89.1028 90.4047C88.9436 90.5482 88.7243 90.5733 88.6173 90.4626C88.5129 90.3544 88.4242 89.9166 88.4242 89.4913C88.4242 88.8648 88.5495 88.7163 89.0715 88.749ZM84.992 89.358C85.1465 89.3648 85.2985 89.398 85.441 89.4561C85.6759 89.5567 85.869 89.7681 85.869 89.9241C85.869 90.2865 84.5431 90.206 84.3108 89.8285C84.1438 89.5593 84.5405 89.3454 84.992 89.358ZM91.9059 89.7958C92.2557 89.8637 92.5428 90.0424 92.5428 90.1934C92.5428 90.3444 92.2557 90.4903 91.9059 90.518C91.4648 90.5507 91.2691 90.4224 91.2691 90.1154C91.2691 89.8059 91.4648 89.7077 91.9059 89.7958ZM97.9063 151.43C98.5092 151.466 98.5066 152.221 97.9011 152.301C97.4574 152.356 96.7005 154.002 96.1002 156.217C95.3015 161.07 95.6695 164.108 97.2851 166.473C100.169 169.618 115.66 172.698 119.535 178.614C109.547 175.476 80.1505 170.99 69.7627 170.003L69.5826 168.71C69.4547 167.807 69.5069 167.354 69.7549 167.215C69.995 167.086 69.9019 167.008 69.4756 166.981C69.1232 166.956 68.8179 166.843 68.8022 166.73C68.5256 164.792 68.6378 164.43 69.6296 164.09C70.1725 163.904 71.0781 163.828 71.6419 163.924C72.2056 164.02 72.8086 163.992 72.9834 163.864C73.1957 163.706 73.4245 163.921 73.6699 164.508C74.0222 165.348 74.0796 165.378 75.3403 165.285C77.4752 165.124 78.574 165.245 79.9965 165.796C81.9592 166.556 85.0155 166.647 84.5744 165.935C84.4883 165.794 84.7467 165.698 85.1486 165.723C85.5558 165.748 85.9577 165.932 86.0334 166.131C86.1091 166.33 86.451 166.526 86.7982 166.571C87.1677 166.633 87.5021 166.82 87.7404 167.1C88.2415 167.789 88.3511 167.643 88.1632 166.523C88.0405 165.784 87.8343 165.451 87.4298 165.358C86.8217 165.22 86.1561 164.505 86.1561 163.992C86.1561 163.816 86.4432 163.564 86.7929 163.426L87.435 163.174L86.7199 162.862C86.1065 162.585 86.0778 162.522 86.5058 162.379C86.8608 162.263 86.9548 162.029 86.8321 161.554C86.7068 161.065 86.8008 160.849 87.1897 160.733C87.5476 160.608 87.8727 160.409 88.1423 160.15C88.3772 159.913 88.8314 159.601 89.1524 159.455C89.6274 159.241 89.7971 159.294 90.0815 159.747C90.4208 160.295 90.4287 160.293 91.0211 159.797C91.5405 159.362 91.598 159.1 91.4387 157.913C91.2717 156.705 91.3239 156.503 91.8302 156.272C92.1434 156.126 92.4044 155.854 92.4044 155.663C92.4044 155.469 92.6576 155.062 92.9708 154.757C93.284 154.455 93.5424 154.136 93.5424 154.052C93.5424 153.806 94.6543 152.877 94.9335 152.895C95.0771 152.903 95.2389 152.814 95.2911 152.699C95.4477 152.351 97.4052 151.4 97.9063 151.43ZM54.9013 165.502L57.5818 166.523C59.5863 167.286 60.5285 167.52 61.2828 167.429C61.8961 167.354 62.3033 167.414 62.3033 167.58C62.3033 167.731 62.854 167.963 63.5274 168.101C64.2608 168.252 64.9681 168.604 65.3022 168.989L65.939 169.045C65.9912 168.685 66.2992 168.411 66.7325 168.333C67.6303 168.169 68.0688 168.451 67.8965 169.085C67.8182 169.357 67.907 169.88 68.0845 169.958C59.5289 169.002 53.9226 168.408 46.0456 168.901C46.2805 168.768 47.6064 168.131 48.2198 168.164C48.8723 168.202 49.8119 167.988 50.5035 167.638C51.1456 167.313 52.1478 166.991 52.7298 166.921C53.351 166.845 54.0218 166.523 54.348 166.146L54.9013 165.502Z" fill="#1F3F23"/>
</svg>
